<?xml version="1.0" encoding="UTF-8"?>
<svg version="1.1" xmlns="http://www.w3.org/2000/svg" width="2100" height="2100">
<path d="M0 0 C0.68823853 0.16502014 1.37647705 0.33004028 2.08557129 0.50006104 C85.18708672 20.47138641 165.22057954 52.07562245 270.53417969 108.54248047 C274.08741878 110.6427614 277.69762675 112.63346421 281.3125 114.625 C289.49809981 119.17674674 297.37662579 124.18808705 305.25732422 129.24462891 C308.29192961 131.18684119 311.33504551 133.11529624 314.37890625 135.04296875 C316.5861062 136.44504696 318.79313908 137.84738821 321 139.25 C322.02601318 139.89912354 323.05202637 140.54824707 324.10913086 141.21704102 C330.02070078 144.98756311 335.74799503 148.92839965 341.39160156 153.08886719 C344.55775601 155.40865912 347.77978568 157.63896384 351.01049805 159.86743164 C361.76334938 167.29172868 372.17442371 175.11041066 382.51757812 183.09228516 C384.87186652 184.90153078 387.23749007 186.69437995 389.609375 188.48046875 C397.56743042 194.48332373 405.2740455 200.67359095 412.7890625 207.22265625 C415.72363012 209.77746662 418.72359509 212.24179183 421.75 214.6875 C426.18333669 218.28755167 430.44513346 222.03903487 434.66796875 225.8828125 C436.75823889 227.78051169 438.86986115 229.64733415 441 231.5 C445.71599116 235.61234429 450.362258 239.79978083 455 244 C455.93972656 244.845625 456.87945313 245.69125 457.84765625 246.5625 C463.87747491 252.0157623 469.6931003 257.63490461 475.40087891 263.42456055 C478.94531885 267.00300898 482.58883943 270.36829222 486.51171875 273.53515625 C488.20593408 275.20269103 489.05409487 276.83327149 490 279 C490.66 279 491.32 279 492 279 C493.234375 280.2578125 493.234375 280.2578125 494.75 282.125 C498.29382547 286.30909646 502.10181891 290.15145445 506 294 C510.21670304 298.17671612 514.33566584 302.35692326 518.171875 306.890625 C520.16147756 309.18632026 522.22229834 311.40291408 524.29614258 313.62231445 C529.27460718 318.9518197 534.03024078 324.37572043 538.59765625 330.06640625 C541.4496097 333.54903559 544.40827123 336.9277518 547.375 340.3125 C552.53952821 346.22529367 557.45972409 352.2821404 562.265625 358.48828125 C564.57951755 361.47553317 566.94573109 364.41654179 569.32592773 367.35107422 C574.36996236 373.58218417 579.24210669 379.9226231 584 386.375 C584.78080933 387.43303833 584.78080933 387.43303833 585.57739258 388.51245117 C595.71335401 402.35238032 605.43919999 416.46684784 614.9375 430.75 C615.72045441 431.92604797 615.72045441 431.92604797 616.51922607 433.12585449 C638.34096104 465.93048823 658.04194452 499.9357136 676 535 C676.31793518 535.61913269 676.63587036 536.23826538 676.96343994 536.87615967 C765.37539896 709.09321635 765.37539896 709.09321635 747.3984375 769.13671875 C745.013843 776.11406364 741.65896899 782.6165064 738 789 C737.52820312 789.82757812 737.05640625 790.65515625 736.5703125 791.5078125 C730.20424959 801.71611456 721.50759945 811.64236023 712 819 C711.49645996 819.39799805 710.99291992 819.79599609 710.47412109 820.20605469 C657.80435566 861.68706185 567.62436625 913 498 913 C498.10546143 913.54487061 498.21092285 914.08974121 498.31958008 914.65112305 C500.6162479 926.70021756 502.43710469 938.7331624 503.6875 950.9375 C503.86599487 952.67422974 503.86599487 952.67422974 504.0480957 954.44604492 C505.70749379 971.38339083 506.23929794 988.17735676 506.25 1005.1875 C506.25100708 1006.30472443 506.25201416 1007.42194885 506.25305176 1008.57302856 C506.23548056 1037.59211739 503.93305963 1066.03414632 499.31958008 1094.67626953 C498.93187678 1097.10440361 498.93187678 1097.10440361 499 1100 C500.06806885 1100.21765015 500.06806885 1100.21765015 501.15771484 1100.43969727 C578.83809748 1116.38448714 659.21602109 1147.26066162 719 1201 C719.80695313 1201.72316406 720.61390625 1202.44632813 721.4453125 1203.19140625 C736.63369068 1217.55950616 748.80523963 1238.58091488 750.17700195 1259.72875977 C750.24480391 1263.00675501 750.28507179 1266.28391456 750.3125 1269.5625 C750.35600586 1271.20895508 750.35600586 1271.20895508 750.40039062 1272.88867188 C750.52938322 1290.30267176 745.46556349 1306.9573585 740.125 1323.375 C739.84510223 1324.24585236 739.56520447 1325.11670471 739.27682495 1326.01394653 C711.23556235 1413.18897354 671.42820373 1497.53413477 604 1599 C603.17653076 1600.19665283 603.17653076 1600.19665283 602.33642578 1601.41748047 C594.50606408 1612.76936687 586.20526664 1623.74155591 577.79345703 1634.66748047 C576.26107308 1636.66045573 574.73546434 1638.65820448 573.21484375 1640.66015625 C567.13543819 1648.63752257 560.83740144 1656.42425575 554.48388672 1664.18408203 C553.19366805 1665.76299721 551.91064412 1667.34778627 550.62890625 1668.93359375 C541.60871789 1680.07228507 532.16051045 1690.8309916 522.4296875 1701.3515625 C520.32940865 1703.64093397 518.27834812 1705.95961618 516.25 1708.3125 C513.57857733 1711.39735713 510.75598087 1714.2686106 507.84315491 1717.12440491 C506.05884593 1718.94011836 504.3983973 1720.81379045 502.74389648 1722.74780273 C499.18305349 1726.84137721 495.4390809 1730.70590554 491.59765625 1734.53515625 C490.91626083 1735.21750839 490.23486542 1735.89986053 489.53282166 1736.60289001 C488.10294259 1738.03344437 486.67182089 1739.46275767 485.23950195 1740.89086914 C483.06802289 1743.05699074 480.90193675 1745.22840174 478.73632812 1747.40039062 C477.33625798 1748.79979987 475.93587762 1750.19889884 474.53515625 1751.59765625 C473.89844498 1752.23639175 473.2617337 1752.87512726 472.60572815 1753.53321838 C468.7822777 1757.33715014 464.84042087 1760.94765256 460.75965881 1764.47392273 C458.82640094 1766.15055508 456.95406474 1767.87905562 455.10546875 1769.6484375 C454.46569092 1770.2566333 453.82591309 1770.8648291 453.16674805 1771.49145508 C452.51359619 1772.1130249 451.86044434 1772.73459473 451.1875 1773.375 C445.810985 1778.45735538 440.3612441 1783.28394154 434.57421875 1787.89453125 C431.78969652 1790.17200846 429.14586197 1792.56312008 426.5 1795 C421.17019892 1799.89379479 415.63164422 1804.46020517 410 1809 C408.76994984 1810.00934094 407.5408379 1811.01982598 406.3125 1812.03125 C397.70539744 1819.10277812 388.93513275 1825.89771271 379.98242188 1832.52490234 C378.02625445 1833.98046436 376.08174836 1835.45023189 374.140625 1836.92578125 C342.28838187 1861.10937077 308.54358846 1882.88695823 274 1903 C273.17371094 1903.48404297 272.34742188 1903.96808594 271.49609375 1904.46679688 C199.42347611 1946.63448408 121.51066619 1979.86126497 -165.8125 2039.75 C-166.57859589 2039.80916595 -167.34469177 2039.86833191 -168.13400269 2039.92929077 C-173.42013115 2040.3307154 -178.70829346 2040.68092993 -184 2041 C-184.77618683 2041.04805786 -185.55237366 2041.09611572 -186.3520813 2041.14562988 C-204.82256892 2042.25065988 -223.31589069 2042.24544737 -241.8125 2042.25 C-242.6375491 2042.25044186 -243.46259819 2042.25088371 -244.31264877 2042.25133896 C-272.9646235 2042.25935832 -301.44856785 2041.59659592 -330 2039 C-330.960271 2038.91278687 -331.92054199 2038.82557373 -332.90991211 2038.73571777 C-416.59510734 2031.02759759 -499.02211527 2013.82067276 -636 1965 C-637.17320801 1964.51176758 -638.34641602 1964.02353516 -639.55517578 1963.52050781 C-676.72992558 1947.97423753 -713.5931216 1930.82448604 -748.42041016 1910.49707031 C-751.04371031 1908.97463263 -753.68102971 1907.47979691 -756.32421875 1905.9921875 C-798.99225197 1881.94685051 -839.31956671 1853.98908087 -878 1824 C-878.57008789 1823.55897949 -879.14017578 1823.11795898 -879.72753906 1822.66357422 C-887.27419792 1816.81712578 -894.65740315 1810.81962135 -901.9140625 1804.6171875 C-904.75605565 1802.19308244 -907.65290065 1799.84268601 -910.5625 1797.5 C-915.63607493 1793.37309794 -920.43741142 1788.99897442 -925.23046875 1784.5546875 C-927.45918393 1782.49886278 -929.70767919 1780.48383043 -932 1778.5 C-936.85662246 1774.28031164 -941.58938371 1769.92692045 -946.31201172 1765.55859375 C-947.42863369 1764.52756762 -948.54741954 1763.49887963 -949.66845703 1762.47265625 C-959.37711437 1753.58159923 -968.74574308 1744.36033473 -978.0625 1735.0625 C-978.65112823 1734.47645996 -979.23975647 1733.89041992 -979.84622192 1733.28662109 C-991.43359006 1721.73947074 -991.43359006 1721.73947074 -996.58178711 1715.63256836 C-998.14395254 1713.83428979 -999.799625 1712.1674709 -1001.5 1710.5 C-1004.53594925 1707.51127663 -1007.34508659 1704.38293521 -1010.125 1701.15625 C-1012.17359094 1698.80037042 -1014.27203002 1696.4949254 -1016.375 1694.1875 C-1020.23022386 1689.91689849 -1023.87582515 1685.51226331 -1027.4921875 1681.0390625 C-1030.38832427 1677.52941389 -1033.37695826 1674.10995408 -1036.375 1670.6875 C-1041.98509406 1664.25904756 -1047.31467385 1657.66119693 -1052.52392578 1650.90576172 C-1054.11871479 1648.84672715 -1055.72812291 1646.7997111 -1057.33984375 1644.75390625 C-1064.963245 1635.05660854 -1072.32177421 1625.2028753 -1079.46923828 1615.14990234 C-1080.89822932 1613.14293343 -1082.33649498 1611.14299517 -1083.77734375 1609.14453125 C-1098.68877763 1588.35913561 -1112.83301124 1566.92952706 -1126 1545 C-1126.81307617 1543.64769287 -1126.81307617 1543.64769287 -1127.64257812 1542.26806641 C-1135.01068488 1529.98006219 -1142.14433113 1517.58050576 -1149 1505 C-1149.774646 1503.58605957 -1149.774646 1503.58605957 -1150.56494141 1502.14355469 C-1178.69374038 1450.7450898 -1202.03600518 1397.43442004 -1221 1342 C-1221.26447937 1341.22718689 -1221.52895874 1340.45437378 -1221.80145264 1339.65814209 C-1248.78470142 1260.5720349 -1265.34957935 1178.41157658 -1275.44604492 1014.4296875 C-1275.4368884 1009.57762333 -1275.44373183 1004.72604213 -1275.46655273 999.87402344 C-1275.91639646 903.60223477 -1262.17182204 807.56211645 -1182 574 C-1181.6629303 573.26612061 -1181.3258606 572.53224121 -1180.97857666 571.77612305 C-1168.46475183 544.53949509 -1155.00959803 517.95928872 -1140 492 C-1139.66875122 491.42600464 -1139.33750244 490.85200928 -1138.99621582 490.26062012 C-1122.66300053 461.96102303 -1122.66300053 461.96102303 -1113.70019531 448.54736328 C-1111.98228616 445.97345976 -1110.27432262 443.39317753 -1108.56761169 440.81184387 C-1096.0317928 421.85809525 -1083.29453156 403.13099334 -1069.54296875 385.03125 C-1067.96251045 382.95064667 -1066.38753156 380.86596331 -1064.8125 378.78125 C-1057.86890047 369.61866982 -1050.73315974 360.63421493 -1043.43554688 351.75146484 C-1042.16412789 350.20024719 -1040.9016989 348.64167066 -1039.640625 347.08203125 C-1030.46060026 335.74101529 -1020.80143371 324.80530495 -1011 314 C-1009.56225299 312.39605471 -1008.12475923 310.79188239 -1006.6875 309.1875 C-1005.1265179 307.45696295 -1003.56392155 305.72788107 -1002 304 C-1000.67742187 302.53626953 -1000.67742187 302.53626953 -999.328125 301.04296875 C-991.75250214 292.71706536 -983.8494162 284.74382462 -975.84594727 276.83007812 C-971.79720269 272.81613958 -967.7786296 268.77231421 -963.76171875 264.7265625 C-962.2534077 263.21086753 -960.7446095 261.69565937 -959.2355957 260.18066406 C-958.2079943 259.1480389 -957.18129286 258.11451732 -956.15551758 257.08007812 C-950.83724703 251.71826418 -945.50865923 246.42668109 -939.76342773 241.51611328 C-936.9941432 239.13521103 -934.35053497 236.62319844 -931.6875 234.125 C-926.81414451 229.58651476 -921.79696023 225.30651203 -916.6015625 221.13671875 C-914.05013271 219.04117506 -911.61673227 216.86036845 -909.1875 214.625 C-904.81491564 210.64491534 -900.25830709 206.98652503 -895.59008789 203.36547852 C-891.72442218 200.36471218 -887.91092864 197.31038847 -884.12792969 194.20605469 C-869.88192143 182.51613177 -855.00106357 171.69560367 -840 161 C-839.20045898 160.42991211 -838.40091797 159.85982422 -837.57714844 159.27246094 C-826.04051922 151.06995879 -814.33952958 143.16843404 -802.41308594 135.54394531 C-800.11733723 134.07507493 -797.82791198 132.59677606 -795.5390625 131.1171875 C-773.63956233 117.04099878 -750.99068762 104.19648421 -728 92 C-726.40090121 91.14479383 -724.80193606 90.2893377 -723.203125 89.43359375 C-718.48746178 86.91920793 -713.74840397 84.45190314 -709 82 C-708.08718262 81.5265918 -707.17436523 81.05318359 -706.23388672 80.56542969 C-678.26181311 66.11949483 -649.33501005 53.41302538 -620 42 C-619.38068604 41.75868347 -618.76137207 41.51736694 -618.12329102 41.26873779 C-535.44572329 9.11490358 -448.506506 -12.65935338 -292 -28 C-290.89269531 -28.05639648 -289.78539062 -28.11279297 -288.64453125 -28.17089844 C-195.9158844 -32.80733078 -102.03058498 -23.81865461 0 0 Z M-438 104 C-438.73250977 104.15664124 -439.46501953 104.31328247 -440.21972656 104.47467041 C-518.48332803 121.27850755 -593.50786095 149.78207584 -695.25048828 202.39648438 C-698.14724785 204.08587497 -701.05513858 205.75489067 -703.96484375 207.421875 C-717.55820516 215.23887537 -730.87062022 223.42773897 -744 232 C-745.0012793 232.65291016 -746.00255859 233.30582031 -747.03417969 233.97851562 C-758.41247615 241.4213273 -769.6139462 248.99703514 -780.40625 257.26953125 C-783.91686586 259.95841278 -787.50940689 262.51746809 -791.125 265.0625 C-808.31302502 277.23362364 -824.39366637 290.98337218 -840.40527344 304.64355469 C-842.04909383 306.04175831 -843.6998962 307.43138965 -845.3515625 308.8203125 C-853.82129195 315.97202073 -861.92948314 323.45886497 -869.97216797 331.08544922 C-871.96267893 332.9647638 -873.96506504 334.83036177 -875.97265625 336.69140625 C-883.12012299 343.32412868 -890.15484675 350.05475688 -897.0625 356.9375 C-897.7527124 357.62312012 -898.4429248 358.30874023 -899.15405273 359.01513672 C-903.09135238 362.96441549 -906.82746477 367.03049153 -910.47045898 371.25219727 C-912.22932061 373.26204409 -914.07894631 375.14518954 -916 377 C-919.21434731 380.1711603 -922.21750963 383.45582753 -925.16015625 386.87890625 C-927.19508819 389.22491058 -929.28290967 391.5173645 -931.375 393.8125 C-935.25033743 398.10608632 -938.9222131 402.53088002 -942.55859375 407.02734375 C-945.27720803 410.3375285 -948.07121916 413.57461422 -950.875 416.8125 C-956.81431724 423.70352902 -962.45350857 430.79075247 -968 438 C-968.91338135 439.18239258 -968.91338135 439.18239258 -969.84521484 440.38867188 C-971.88071694 443.02633706 -973.90999038 445.66868723 -975.9375 448.3125 C-976.5572168 449.11695557 -977.17693359 449.92141113 -977.81542969 450.75024414 C-988.33594959 464.53104341 -998.07501706 478.88985581 -1007.6875 493.3125 C-1008.20302429 494.08558502 -1008.71854858 494.85867004 -1009.24969482 495.65518188 C-1029.19516936 525.6178652 -1047.00218499 556.69635771 -1063.34912109 588.765625 C-1064.89626239 591.79675897 -1066.45696144 594.82055068 -1068.01953125 597.84375 C-1082.64612312 626.36267688 -1094.82212255 655.98413845 -1106 686 C-1106.26319031 686.70600342 -1106.52638062 687.41200684 -1106.79754639 688.1394043 C-1135.47926832 765.28196011 -1153.0094971 846.58836229 -1115 1302 C-1114.76085876 1302.71871277 -1114.52171753 1303.43742554 -1114.27532959 1304.17791748 C-1103.60357143 1336.19319197 -1090.97349456 1367.54677852 -1076.43115234 1398.00244141 C-1074.96000884 1401.08376176 -1073.50477798 1404.17227493 -1072.05078125 1407.26171875 C-1061.52767816 1429.51947773 -1050.16123361 1451.17703759 -1037.57666016 1472.33886719 C-1036.16557511 1474.72053751 -1034.77114839 1477.11058319 -1033.38671875 1479.5078125 C-1019.29742947 1503.86484233 -1003.55256991 1527.25523141 -987 1550 C-986.48115234 1550.71720215 -985.96230469 1551.4344043 -985.42773438 1552.17333984 C-977.71709668 1562.82104571 -969.75448173 1573.18541134 -961.38085938 1583.31933594 C-959.51780455 1585.5868871 -957.69562664 1587.88581347 -955.875 1590.1875 C-952.37860866 1594.57455102 -948.76506956 1598.85480293 -945.12524414 1603.12280273 C-942.29087525 1606.45154395 -939.5338462 1609.82754362 -936.8125 1613.25 C-932.1611473 1618.97409711 -927.11140944 1624.30011095 -922.02270508 1629.63574219 C-918.666143 1633.1557637 -915.37085581 1636.70560285 -912.16015625 1640.359375 C-905.38902112 1647.91682145 -898.13435814 1655.01428589 -890.95239258 1662.17797852 C-888.43650714 1664.68849074 -885.92602814 1667.20432064 -883.41601562 1669.72070312 C-881.79719563 1671.33886249 -880.17806555 1672.95671172 -878.55859375 1674.57421875 C-877.44888466 1675.68696419 -877.44888466 1675.68696419 -876.3167572 1676.82218933 C-872.25760489 1680.86334861 -868.11149195 1684.74117839 -863.76535034 1688.47276306 C-861.00142593 1690.86388473 -858.35263719 1693.37511982 -855.6875 1695.875 C-850.91589105 1700.31465293 -846.0183201 1704.51659141 -840.93359375 1708.59765625 C-837.45096151 1711.44961208 -834.07230285 1714.40833002 -830.6875 1717.375 C-824.18393952 1723.05365428 -817.50585649 1728.45283239 -810.66455078 1733.71777344 C-809.07264252 1734.94404246 -807.48732658 1736.1788552 -805.90234375 1737.4140625 C-759.45869058 1773.46514094 -709.64289785 1804.64045729 -657.27539062 1831.32861328 C-654.2045515 1832.89562019 -651.14103314 1834.47615987 -648.078125 1836.05859375 C-595.20007263 1863.17186774 -538.36100887 1883.73885962 -481 1899 C-479.94504333 1899.28299957 -479.94504333 1899.28299957 -478.86877441 1899.57171631 C-439.79925344 1910.0501703 -400.09990261 1917.73400614 -360 1923 C-359.25288757 1923.09841187 -358.50577515 1923.19682373 -357.73602295 1923.29821777 C-346.51177347 1924.76456646 -335.27141325 1925.9614455 -324 1927 C-322.8044046 1927.1127829 -322.8044046 1927.1127829 -321.58465576 1927.22784424 C-295.47115024 1929.67352784 -269.39985164 1930.28731527 -243.18923569 1930.31007385 C-240.86334119 1930.3124481 -238.53746701 1930.31775361 -236.21157837 1930.32336426 C-207.53619332 1930.37402238 -178.90674756 1929.2321725 -150.375 1926.25 C-149.56912445 1926.16763092 -148.7632489 1926.08526184 -147.93295288 1926.00039673 C-60.92905462 1917.04190941 25.34709744 1895.80941403 166.64794922 1834.64453125 C168.77811851 1833.59946058 170.90978875 1832.55743952 173.04345703 1831.51953125 C187.35324624 1824.55840743 201.24653226 1817.00217591 215 1809 C216.08506836 1808.36900391 217.17013672 1807.73800781 218.28808594 1807.08789062 C240.39958955 1794.18898296 261.99173055 1780.63150064 283 1766 C283.70398926 1765.51354004 284.40797852 1765.02708008 285.13330078 1764.52587891 C297.37973765 1756.06298715 309.22327185 1747.10227428 321 1738 C321.68787598 1737.46955078 322.37575195 1736.93910156 323.08447266 1736.39257812 C330.51940446 1730.6490504 337.76857851 1724.724969 344.91015625 1718.62109375 C347.77577694 1716.17696666 350.69405522 1713.80304266 353.625 1711.4375 C358.38807218 1707.56187067 362.93364249 1703.48765711 367.453125 1699.33203125 C369.58941749 1697.37594748 371.74780657 1695.45812303 373.9375 1693.5625 C381.86844708 1686.65542519 389.54273259 1679.53205761 396.92578125 1672.04296875 C398.86941021 1670.12862233 400.86592426 1668.33636426 402.9375 1666.5625 C407.86749691 1662.31971478 412.66816511 1657.85556083 417 1653 C417 1652.34 417 1651.68 417 1651 C417.66 1651 418.32 1651 419 1651 C420.50049936 1649.51638306 420.50049936 1649.51638306 422.0625 1647.5625 C424.75174994 1644.39242783 427.53513377 1641.41418475 430.5 1638.5 C433.87100065 1635.16879193 437.0451403 1631.74888372 440.12890625 1628.15234375 C442.33079829 1625.61947838 444.60195826 1623.15667478 446.875 1620.6875 C450.94540056 1616.22477168 454.80176909 1611.63742 458.59375 1606.9375 C461.29780389 1603.63644719 464.0815942 1600.41278397 466.875 1597.1875 C472.81438851 1590.29653808 478.45351296 1583.20924182 484 1576 C484.6089209 1575.21173828 485.2178418 1574.42347656 485.84521484 1573.61132812 C487.88071694 1570.97366294 489.90999038 1568.33131277 491.9375 1565.6875 C492.5572168 1564.88304443 493.17693359 1564.07858887 493.81542969 1563.24975586 C504.43967085 1549.33309241 514.24643018 1534.82477081 523.9375 1520.25 C524.72145142 1519.07195801 524.72145142 1519.07195801 525.52124023 1517.87011719 C544.88962312 1488.7393136 562.39751001 1458.76128302 578.19287109 1427.55859375 C579.94212406 1424.11396915 581.71307206 1420.6813037 583.48828125 1417.25 C602.80901648 1379.62799965 618.44841351 1340.07649788 631.875 1300 C632.13261108 1299.23460907 632.39022217 1298.46921814 632.65563965 1297.68063354 C633.37990566 1295.51877634 634.09442138 1293.35399229 634.8046875 1291.1875 C635.20671387 1289.96417969 635.60874023 1288.74085937 636.02294922 1287.48046875 C637.01518407 1283.94591102 637.56747946 1280.63713103 638 1277 C588.68228721 1240.69850053 528.929096 1215.12387947 468 1207 C465.21752411 1212.41001113 462.70653202 1217.88755006 460.29736328 1223.47314453 C448.86733616 1249.96536179 435.00382696 1274.80055102 420.43994141 1299.671875 C415.93104391 1307.3780358 411.48467032 1315.11886324 407.0625 1322.875 C400.03417892 1335.2003733 392.95759481 1347.49722214 385.85888672 1359.78222656 C382.73675395 1365.18670645 379.61858796 1370.59347412 376.5 1376 C375.25001878 1378.1666775 374.00001879 1380.33334417 372.75 1382.5 C372.13125 1383.5725 371.5125 1384.645 370.875 1385.75 C364 1397.66666667 357.125 1409.58333333 350.25 1421.5 C349.63116943 1422.57282227 349.01233887 1423.64564453 348.37475586 1424.75097656 C347.1262085 1426.91475677 345.87702352 1429.07816918 344.62719727 1431.24121094 C341.47460676 1436.69918205 338.33380008 1442.16335495 335.21484375 1447.640625 C316.24865854 1480.87980102 294.94095549 1511.79703754 270.125 1540.9375 C269.67954834 1541.46239014 269.23409668 1541.98728027 268.77514648 1542.52807617 C259.97521348 1552.79389315 250.64778839 1562.5172656 241.07397461 1572.05639648 C239.30008997 1573.82487219 237.53168223 1575.59870044 235.76367188 1577.37304688 C230.01131771 1583.12907031 224.22388419 1588.74934695 218 1594 C216.91636034 1594.94868676 215.83428322 1595.8991618 214.75390625 1596.8515625 C205.80993367 1604.652331 196.50274736 1611.89530941 187 1619 C186.04673828 1619.71736328 186.04673828 1619.71736328 185.07421875 1620.44921875 C116.16086981 1672.243041 34.85760635 1706.24646967 -70 1723.25 C-71.13469727 1723.40122314 -72.26939453 1723.55244629 -73.43847656 1723.70825195 C-105.54557213 1727.60609033 -137.81737807 1727.30108737 -170.10021329 1727.26865101 C-174.10612516 1727.2655947 -178.11202144 1727.2657842 -182.11793327 1727.26763153 C-183.12627548 1727.26809123 -183.12627548 1727.26809123 -184.15498824 1727.26856022 C-185.52206048 1727.26919989 -186.88913272 1727.26984832 -188.25620496 1727.2705054 C-200.97078758 1727.27616115 -213.68534102 1727.26972626 -226.39991885 1727.25890467 C-237.22976189 1727.24997148 -248.05956202 1727.25152864 -258.8894043 1727.26074219 C-271.57079915 1727.27152643 -284.25216866 1727.27561442 -296.93356746 1727.26951766 C-298.29433914 1727.26888079 -299.65511081 1727.26825204 -301.01588249 1727.26763153 C-301.68481605 1727.26732298 -302.3537496 1727.26701443 -303.04295387 1727.26669653 C-307.68099653 1727.26499397 -312.31902219 1727.26793288 -316.95706367 1727.27259064 C-370.95663519 1727.31948434 -370.95663519 1727.31948434 -396 1725 C-396.86415276 1724.92038906 -397.72830551 1724.84077812 -398.61864471 1724.75875473 C-403.07118779 1724.33805982 -407.50377199 1723.83641242 -411.9375 1723.25 C-413.24138672 1723.08081055 -414.54527344 1722.91162109 -415.88867188 1722.73730469 C-489.51549211 1712.93365246 -561.74832085 1688.10960529 -625 1649 C-625.84626953 1648.47825195 -626.69253906 1647.95650391 -627.56445312 1647.41894531 C-640.42684578 1639.45235258 -652.89534959 1631.07699488 -665 1622 C-665.61198242 1621.54109375 -666.22396484 1621.0821875 -666.85449219 1620.609375 C-676.79131621 1613.1223497 -686.40128845 1605.24916926 -695.875 1597.1875 C-696.39118896 1596.75066895 -696.90737793 1596.31383789 -697.43920898 1595.86376953 C-707.96382509 1586.85175882 -717.92991274 1577.23779917 -727.70458984 1567.42578125 C-729.39175958 1565.73318653 -731.08430196 1564.04609403 -732.77734375 1562.359375 C-738.3989867 1556.74147879 -743.86578569 1551.07300291 -749 1545 C-749.94878855 1543.91644946 -750.89926088 1542.83437055 -751.8515625 1541.75390625 C-759.65365899 1532.80919093 -766.89047435 1523.50050249 -774 1514 C-774.58072266 1513.22962402 -775.16144531 1512.45924805 -775.75976562 1511.66552734 C-798.3923642 1481.61858842 -816.4727558 1448.71792933 -835.07653809 1416.09692383 C-839.67337868 1408.03845661 -844.31293082 1400.006353 -849 1392 C-854.0318069 1383.40477328 -859.00389072 1374.7768787 -863.9375 1366.125 C-869.12442426 1357.02920013 -874.32681506 1347.94287737 -879.5625 1338.875 C-880.17802734 1337.80894531 -880.79355469 1336.74289062 -881.42773438 1335.64453125 C-883.28470194 1332.42942477 -885.14223579 1329.21464622 -887 1326 C-891.36259675 1318.45103058 -895.72210636 1310.900309 -900.07324219 1303.34472656 C-901.37758122 1301.08047862 -902.68294995 1298.81682358 -903.98925781 1296.55371094 C-908.69945104 1288.39157909 -913.37263313 1280.20939132 -918 1272 C-918.60730957 1270.92282715 -919.21461914 1269.8456543 -919.84033203 1268.73583984 C-955.939128 1204.29411807 -976.99203121 1133.24288459 -985 1060 C-985.11859375 1058.9692334 -985.2371875 1057.9384668 -985.359375 1056.87646484 C-989.47541906 1019.76469258 -988.471041 981.04436486 -984 944 C-983.9175 943.30485291 -983.835 942.60970581 -983.75 941.89349365 C-974.07382966 861.00675725 -944.77467454 786.14754918 -903.6640625 716.2578125 C-899.74065237 709.57890092 -895.897403 702.85493322 -892.0625 696.125 C-890.7112698 693.75501871 -889.35968853 691.38523796 -888.0078125 689.015625 C-887.6739856 688.43048126 -887.34015869 687.84533752 -886.99621582 687.24246216 C-880.42549919 675.73215812 -873.77713687 664.26628318 -867.14550781 652.79101562 C-865.28397328 649.56931725 -863.42301161 646.34728921 -861.5625 643.125 C-860.94697266 642.05894531 -860.33144531 640.99289062 -859.69726562 639.89453125 C-854.74546958 631.31004403 -849.83175132 622.70419707 -844.92263794 614.09527588 C-839.76647373 605.05640452 -834.54980949 596.05460525 -829.28662109 587.07763672 C-826.18659242 581.78069595 -823.1190918 576.46715913 -820.09765625 571.125 C-808.02166358 549.78292105 -795.53693487 528.77984423 -781 509 C-780.51466797 508.33597168 -780.02933594 507.67194336 -779.52929688 506.98779297 C-758.59726894 478.42343469 -735.08660805 449.68984266 -708 426.72265625 C-705.56610869 424.62627721 -703.22865575 422.4360262 -700.875 420.25 C-695.6671532 415.50124713 -690.22300397 411.14766808 -684.6484375 406.83984375 C-682.22936232 404.96903201 -679.84147526 403.06771452 -677.4765625 401.12890625 C-631.77725579 363.72095584 -577.68259258 335.25601752 -522 316 C-520.90461914 315.6189209 -519.80923828 315.2378418 -518.68066406 314.84521484 C-477.07617348 300.52345782 -433.81944985 291.74213178 -390 288 C-388.61343531 287.87588792 -388.61343531 287.87588792 -387.19885921 287.74926853 C-374.52402232 286.75526936 -361.85010178 286.84418164 -349.14331055 286.83886719 C-346.54605032 286.83423059 -343.94879077 286.82920482 -341.35153198 286.82382202 C-334.32763576 286.81033475 -327.30374533 286.8042281 -320.27983832 286.79981136 C-315.87448811 286.79703059 -311.46914004 286.79278991 -307.06379128 286.78830719 C-294.81249855 286.77612334 -282.56120751 286.76582472 -270.30990887 286.7624321 C-269.13734762 286.76210275 -269.13734762 286.76210275 -267.94109826 286.76176675 C-266.76606742 286.76143933 -266.76606742 286.76143933 -265.56729859 286.7611053 C-263.98049398 286.76066187 -262.39368937 286.76021531 -260.80688477 286.75976562 C-260.01981047 286.7595442 -259.23273617 286.75932277 -258.42181114 286.75909463 C-245.71634995 286.75516076 -233.01094661 286.7377461 -220.30550768 286.7144061 C-207.18994246 286.69051199 -194.07440602 286.67822201 -180.95881873 286.67706418 C-173.62386222 286.67615706 -166.28898173 286.67056787 -158.95404625 286.65224457 C-67.4228756 286.43299891 17.91188563 301.33972293 204 408 C205.04251137 408.86903855 206.08550528 409.73749848 207.12890625 410.60546875 C213.63742582 416.04099609 219.9670084 421.63586496 226.18359375 427.40234375 C228.67602905 429.70119184 231.20449301 431.9479638 233.75 434.1875 C238.37194985 438.33751656 242.78797808 442.67962001 247.1875 447.0625 C248.18571777 448.05382935 248.18571777 448.05382935 249.20410156 449.06518555 C253.10327693 452.97647918 256.81333425 456.99923232 260.42114258 461.18041992 C262.47527552 463.54773905 264.61262222 465.83284658 266.75 468.125 C271.49754517 473.33152235 275.85026442 478.77392239 280.15625 484.34765625 C282.03828383 486.78143274 283.95297522 489.18163069 285.90625 491.55859375 C293.31786297 500.59654876 299.99285493 510.01460258 306.48339844 519.73242188 C307.88850722 521.83329927 309.3050999 523.92579257 310.7265625 526.015625 C321.350128 541.69050232 330.59901049 558.17499996 340.03271484 574.58154297 C341.9312388 577.88051697 343.83381851 581.17710769 345.73828125 584.47265625 C352.55198141 596.2641804 359.33131037 608.07443567 366.07736206 619.90472412 C370.67394223 627.96263212 375.3132416 635.99417786 380 644 C385.0318069 652.59522672 390.00389072 661.2231213 394.9375 669.875 C400.12442508 678.9708013 405.32709004 688.05696279 410.5625 697.125 C411.17512695 698.1867041 411.78775391 699.2484082 412.41894531 700.34228516 C415.55611153 705.77657071 418.69987256 711.206937 421.8515625 716.6328125 C438.71945188 745.70386986 454.24126683 774.87331569 467 806 C475.08321965 805.47850196 482.79524891 804.17081738 490.6875 802.375 C492.44429077 801.97849243 492.44429077 801.97849243 494.23657227 801.57397461 C541.51513679 790.66794817 602.77158363 771.22841637 638 736 C636.7745091 726.13771613 633.09354333 716.73232176 629.875 707.375 C629.41747849 706.03858459 629.41747849 706.03858459 628.95071411 704.6751709 C609.45033484 647.89708214 584.3682154 592.40759265 553.65722656 540.81005859 C552.14676568 538.24886166 550.67151095 535.67189784 549.2109375 533.08203125 C541.72413458 519.92114397 533.39075246 507.34589722 525 494.75 C524.40757507 493.85911682 523.81515015 492.96823364 523.20477295 492.050354 C507.68714062 468.75003718 491.13793421 446.35760389 473.39257812 424.70849609 C471.55087934 422.44899257 469.74385924 420.16280622 467.9375 417.875 C460.46471643 408.51435532 452.56313693 399.50309105 444.44921875 390.6953125 C442.46683147 388.51373798 440.51848223 386.3118482 438.58203125 384.08984375 C427.61071336 371.52603356 415.84141121 359.73714873 404.0625 347.9375 C403.3811499 347.25356171 402.6997998 346.56962341 401.99780273 345.86495972 C392.59137922 336.37694506 392.59137922 336.37694506 382.67602539 327.4309082 C379.75062274 324.93334302 376.98481753 322.26394831 374.1875 319.625 C369.14089056 314.89803624 363.96665852 310.42490857 358.56640625 306.1015625 C356.02440637 304.01998573 353.60470665 301.8496162 351.1875 299.625 C345.62650879 294.56476156 339.73071235 289.98701399 333.78808594 285.38964844 C332.08233738 284.06399022 330.38684971 282.72653812 328.6953125 281.3828125 C280.70838966 243.28475035 228.83645221 210.47738172 174.26660156 182.66699219 C171.22204621 181.11331327 168.18488911 179.54599933 165.1484375 177.9765625 C89.31472394 139.08581385 5.81730672 112.38763494 -438 104 Z " fill="#006BFF" transform="translate(1309,43)"/>
<path d="M0 0 C0.68823853 0.16502014 1.37647705 0.33004028 2.08557129 0.50006104 C85.18708672 20.47138641 165.22057954 52.07562245 270.53417969 108.54248047 C274.08741878 110.6427614 277.69762675 112.63346421 281.3125 114.625 C289.49809981 119.17674674 297.37662579 124.18808705 305.25732422 129.24462891 C308.29192961 131.18684119 311.33504551 133.11529624 314.37890625 135.04296875 C316.5861062 136.44504696 318.79313908 137.84738821 321 139.25 C322.02601318 139.89912354 323.05202637 140.54824707 324.10913086 141.21704102 C330.02070078 144.98756311 335.74799503 148.92839965 341.39160156 153.08886719 C344.55775601 155.40865912 347.77978568 157.63896384 351.01049805 159.86743164 C361.76334938 167.29172868 372.17442371 175.11041066 382.51757812 183.09228516 C384.87186652 184.90153078 387.23749007 186.69437995 389.609375 188.48046875 C397.56743042 194.48332373 405.2740455 200.67359095 412.7890625 207.22265625 C415.72363012 209.77746662 418.72359509 212.24179183 421.75 214.6875 C426.18333669 218.28755167 430.44513346 222.03903487 434.66796875 225.8828125 C436.75823889 227.78051169 438.86986115 229.64733415 441 231.5 C445.71599116 235.61234429 450.362258 239.79978083 455 244 C455.93972656 244.845625 456.87945313 245.69125 457.84765625 246.5625 C463.87747491 252.0157623 469.6931003 257.63490461 475.40087891 263.42456055 C478.94531885 267.00300898 482.58883943 270.36829222 486.51171875 273.53515625 C488.20593408 275.20269103 489.05409487 276.83327149 490 279 C490.66 279 491.32 279 492 279 C493.234375 280.2578125 493.234375 280.2578125 494.75 282.125 C498.29382547 286.30909646 502.10181891 290.15145445 506 294 C510.21670304 298.17671612 514.33566584 302.35692326 518.171875 306.890625 C520.16147756 309.18632026 522.22229834 311.40291408 524.29614258 313.62231445 C529.27460718 318.9518197 534.03024078 324.37572043 538.59765625 330.06640625 C541.4496097 333.54903559 544.40827123 336.9277518 547.375 340.3125 C552.53952821 346.22529367 557.45972409 352.2821404 562.265625 358.48828125 C564.57951755 361.47553317 566.94573109 364.41654179 569.32592773 367.35107422 C574.36996236 373.58218417 579.24210669 379.9226231 584 386.375 C584.78080933 387.43303833 584.78080933 387.43303833 585.57739258 388.51245117 C595.71335401 402.35238032 605.43919999 416.46684784 614.9375 430.75 C615.72045441 431.92604797 615.72045441 431.92604797 616.51922607 433.12585449 C638.34096104 465.93048823 658.04194452 499.9357136 676 535 C676.31793518 535.61913269 676.63587036 536.23826538 676.96343994 536.87615967 C765.37539896 709.09321635 765.37539896 709.09321635 747.3984375 769.13671875 C745.013843 776.11406364 741.65896899 782.6165064 738 789 C737.52820312 789.82757812 737.05640625 790.65515625 736.5703125 791.5078125 C730.20424959 801.71611456 721.50759945 811.64236023 712 819 C711.49645996 819.39799805 710.99291992 819.79599609 710.47412109 820.20605469 C657.80435566 861.68706185 567.62436625 913 498 913 C498.10546143 913.54487061 498.21092285 914.08974121 498.31958008 914.65112305 C500.6162479 926.70021756 502.43710469 938.7331624 503.6875 950.9375 C503.86599487 952.67422974 503.86599487 952.67422974 504.0480957 954.44604492 C505.70749379 971.38339083 506.23929794 988.17735676 506.25 1005.1875 C506.25100708 1006.30472443 506.25201416 1007.42194885 506.25305176 1008.57302856 C506.23548056 1037.59211739 503.93305963 1066.03414632 499.31958008 1094.67626953 C498.93187678 1097.10440361 498.93187678 1097.10440361 499 1100 C500.06806885 1100.21765015 500.06806885 1100.21765015 501.15771484 1100.43969727 C578.83809748 1116.38448714 659.21602109 1147.26066162 719 1201 C719.80695313 1201.72316406 720.61390625 1202.44632813 721.4453125 1203.19140625 C736.63369068 1217.55950616 748.80523963 1238.58091488 750.17700195 1259.72875977 C750.24480391 1263.00675501 750.28507179 1266.28391456 750.3125 1269.5625 C750.35600586 1271.20895508 750.35600586 1271.20895508 750.40039062 1272.88867188 C750.52938322 1290.30267176 745.46556349 1306.9573585 740.125 1323.375 C739.84510223 1324.24585236 739.56520447 1325.11670471 739.27682495 1326.01394653 C711.23556235 1413.18897354 671.42820373 1497.53413477 604 1599 C603.17653076 1600.19665283 603.17653076 1600.19665283 602.33642578 1601.41748047 C594.50606408 1612.76936687 586.20526664 1623.74155591 577.79345703 1634.66748047 C576.26107308 1636.66045573 574.73546434 1638.65820448 573.21484375 1640.66015625 C567.13543819 1648.63752257 560.83740144 1656.42425575 554.48388672 1664.18408203 C553.19366805 1665.76299721 551.91064412 1667.34778627 550.62890625 1668.93359375 C541.60871789 1680.07228507 532.16051045 1690.8309916 522.4296875 1701.3515625 C520.32940865 1703.64093397 518.27834812 1705.95961618 516.25 1708.3125 C513.57857733 1711.39735713 510.75598087 1714.2686106 507.84315491 1717.12440491 C506.05884593 1718.94011836 504.3983973 1720.81379045 502.74389648 1722.74780273 C499.18305349 1726.84137721 495.4390809 1730.70590554 491.59765625 1734.53515625 C490.91626083 1735.21750839 490.23486542 1735.89986053 489.53282166 1736.60289001 C488.10294259 1738.03344437 486.67182089 1739.46275767 485.23950195 1740.89086914 C483.06802289 1743.05699074 480.90193675 1745.22840174 478.73632812 1747.40039062 C477.33625798 1748.79979987 475.93587762 1750.19889884 474.53515625 1751.59765625 C473.89844498 1752.23639175 473.2617337 1752.87512726 472.60572815 1753.53321838 C468.7822777 1757.33715014 464.84042087 1760.94765256 460.75965881 1764.47392273 C458.82640094 1766.15055508 456.95406474 1767.87905562 455.10546875 1769.6484375 C454.46569092 1770.2566333 453.82591309 1770.8648291 453.16674805 1771.49145508 C452.51359619 1772.1130249 451.86044434 1772.73459473 451.1875 1773.375 C445.810985 1778.45735538 440.3612441 1783.28394154 434.57421875 1787.89453125 C431.78969652 1790.17200846 429.14586197 1792.56312008 426.5 1795 C421.17019892 1799.89379479 415.63164422 1804.46020517 410 1809 C408.76994984 1810.00934094 407.5408379 1811.01982598 406.3125 1812.03125 C397.70539744 1819.10277812 388.93513275 1825.89771271 379.98242188 1832.52490234 C378.02625445 1833.98046436 376.08174836 1835.45023189 374.140625 1836.92578125 C342.28838187 1861.10937077 308.54358846 1882.88695823 274 1903 C273.17371094 1903.48404297 272.34742188 1903.96808594 271.49609375 1904.46679688 C199.42347611 1946.63448408 121.51066619 1979.86126497 -165.8125 2039.75 C-166.57859589 2039.80916595 -167.34469177 2039.86833191 -168.13400269 2039.92929077 C-173.42013115 2040.3307154 -178.70829346 2040.68092993 -184 2041 C-184.77618683 2041.04805786 -185.55237366 2041.09611572 -186.3520813 2041.14562988 C-204.82256892 2042.25065988 -223.31589069 2042.24544737 -241.8125 2042.25 C-242.6375491 2042.25044186 -243.46259819 2042.25088371 -244.31264877 2042.25133896 C-272.9646235 2042.25935832 -301.44856785 2041.59659592 -330 2039 C-330.960271 2038.91278687 -331.92054199 2038.82557373 -332.90991211 2038.73571777 C-416.59510734 2031.02759759 -499.02211527 2013.82067276 -636 1965 C-637.17320801 1964.51176758 -638.34641602 1964.02353516 -639.55517578 1963.52050781 C-676.72992558 1947.97423753 -713.5931216 1930.82448604 -748.42041016 1910.49707031 C-751.04371031 1908.97463263 -753.68102971 1907.47979691 -756.32421875 1905.9921875 C-798.99225197 1881.94685051 -839.31956671 1853.98908087 -878 1824 C-878.57008789 1823.55897949 -879.14017578 1823.11795898 -879.72753906 1822.66357422 C-887.27419792 1816.81712578 -894.65740315 1810.81962135 -901.9140625 1804.6171875 C-904.75605565 1802.19308244 -907.65290065 1799.84268601 -910.5625 1797.5 C-915.63607493 1793.37309794 -920.43741142 1788.99897442 -925.23046875 1784.5546875 C-927.45918393 1782.49886278 -929.70767919 1780.48383043 -932 1778.5 C-936.85662246 1774.28031164 -941.58938371 1769.92692045 -946.31201172 1765.55859375 C-947.42863369 1764.52756762 -948.54741954 1763.49887963 -949.66845703 1762.47265625 C-959.37711437 1753.58159923 -968.74574308 1744.36033473 -978.0625 1735.0625 C-978.65112823 1734.47645996 -979.23975647 1733.89041992 -979.84622192 1733.28662109 C-991.43359006 1721.73947074 -991.43359006 1721.73947074 -996.58178711 1715.63256836 C-998.14395254 1713.83428979 -999.799625 1712.1674709 -1001.5 1710.5 C-1004.53594925 1707.51127663 -1007.34508659 1704.38293521 -1010.125 1701.15625 C-1012.17359094 1698.80037042 -1014.27203002 1696.4949254 -1016.375 1694.1875 C-1020.23022386 1689.91689849 -1023.87582515 1685.51226331 -1027.4921875 1681.0390625 C-1030.38832427 1677.52941389 -1033.37695826 1674.10995408 -1036.375 1670.6875 C-1041.98509406 1664.25904756 -1047.31467385 1657.66119693 -1052.52392578 1650.90576172 C-1054.11871479 1648.84672715 -1055.72812291 1646.7997111 -1057.33984375 1644.75390625 C-1064.963245 1635.05660854 -1072.32177421 1625.2028753 -1079.46923828 1615.14990234 C-1080.89822932 1613.14293343 -1082.33649498 1611.14299517 -1083.77734375 1609.14453125 C-1098.68877763 1588.35913561 -1112.83301124 1566.92952706 -1126 1545 C-1126.81307617 1543.64769287 -1126.81307617 1543.64769287 -1127.64257812 1542.26806641 C-1135.01068488 1529.98006219 -1142.14433113 1517.58050576 -1149 1505 C-1149.774646 1503.58605957 -1149.774646 1503.58605957 -1150.56494141 1502.14355469 C-1178.69374038 1450.7450898 -1202.03600518 1397.43442004 -1221 1342 C-1221.26447937 1341.22718689 -1221.52895874 1340.45437378 -1221.80145264 1339.65814209 C-1248.78470142 1260.5720349 -1265.34957935 1178.41157658 -1275.44604492 1014.4296875 C-1275.4368884 1009.57762333 -1275.44373183 1004.72604213 -1275.46655273 999.87402344 C-1275.91639646 903.60223477 -1262.17182204 807.56211645 -1182 574 C-1181.6629303 573.26612061 -1181.3258606 572.53224121 -1180.97857666 571.77612305 C-1168.46475183 544.53949509 -1155.00959803 517.95928872 -1140 492 C-1139.66875122 491.42600464 -1139.33750244 490.85200928 -1138.99621582 490.26062012 C-1122.66300053 461.96102303 -1122.66300053 461.96102303 -1113.70019531 448.54736328 C-1111.98228616 445.97345976 -1110.27432262 443.39317753 -1108.56761169 440.81184387 C-1096.0317928 421.85809525 -1083.29453156 403.13099334 -1069.54296875 385.03125 C-1067.96251045 382.95064667 -1066.38753156 380.86596331 -1064.8125 378.78125 C-1057.86890047 369.61866982 -1050.73315974 360.63421493 -1043.43554688 351.75146484 C-1042.16412789 350.20024719 -1040.9016989 348.64167066 -1039.640625 347.08203125 C-1030.46060026 335.74101529 -1020.80143371 324.80530495 -1011 314 C-1009.56225299 312.39605471 -1008.12475923 310.79188239 -1006.6875 309.1875 C-1005.1265179 307.45696295 -1003.56392155 305.72788107 -1002 304 C-1000.67742187 302.53626953 -1000.67742187 302.53626953 -999.328125 301.04296875 C-991.75250214 292.71706536 -983.8494162 284.74382462 -975.84594727 276.83007812 C-971.79720269 272.81613958 -967.7786296 268.77231421 -963.76171875 264.7265625 C-962.2534077 263.21086753 -960.7446095 261.69565937 -959.2355957 260.18066406 C-958.2079943 259.1480389 -957.18129286 258.11451732 -956.15551758 257.08007812 C-950.83724703 251.71826418 -945.50865923 246.42668109 -939.76342773 241.51611328 C-936.9941432 239.13521103 -934.35053497 236.62319844 -931.6875 234.125 C-926.81414451 229.58651476 -921.79696023 225.30651203 -916.6015625 221.13671875 C-914.05013271 219.04117506 -911.61673227 216.86036845 -909.1875 214.625 C-904.81491564 210.64491534 -900.25830709 206.98652503 -895.59008789 203.36547852 C-891.72442218 200.36471218 -887.91092864 197.31038847 -884.12792969 194.20605469 C-869.88192143 182.51613177 -855.00106357 171.69560367 -840 161 C-839.20045898 160.42991211 -838.40091797 159.85982422 -837.57714844 159.27246094 C-826.04051922 151.06995879 -814.33952958 143.16843404 -802.41308594 135.54394531 C-800.11733723 134.07507493 -797.82791198 132.59677606 -795.5390625 131.1171875 C-773.63956233 117.04099878 -750.99068762 104.19648421 -728 92 C-726.40090121 91.14479383 -724.80193606 90.2893377 -723.203125 89.43359375 C-718.48746178 86.91920793 -713.74840397 84.45190314 -709 82 C-708.08718262 81.5265918 -707.17436523 81.05318359 -706.23388672 80.56542969 C-678.26181311 66.11949483 -649.33501005 53.41302538 -620 42 C-619.38068604 41.75868347 -618.76137207 41.51736694 -618.12329102 41.26873779 C-535.44572329 9.11490358 -448.506506 -12.65935338 -292 -28 C-290.89269531 -28.05639648 -289.78539062 -28.11279297 -288.64453125 -28.17089844 C-195.9158844 -32.80733078 -102.03058498 -23.81865461 0 0 Z M-438 104 C-438.73250977 104.15664124 -439.46501953 104.31328247 -440.21972656 104.47467041 C-518.48332803 121.27850755 -593.50786095 149.78207584 -695.25048828 202.39648438 C-698.14724785 204.08587497 -701.05513858 205.75489067 -703.96484375 207.421875 C-717.55820516 215.23887537 -730.87062022 223.42773897 -744 232 C-745.0012793 232.65291016 -746.00255859 233.30582031 -747.03417969 233.97851562 C-758.41247615 241.4213273 -769.6139462 248.99703514 -780.40625 257.26953125 C-783.91686586 259.95841278 -787.50940689 262.51746809 -791.125 265.0625 C-808.31302502 277.23362364 -824.39366637 290.98337218 -840.40527344 304.64355469 C-842.04909383 306.04175831 -843.6998962 307.43138965 -845.3515625 308.8203125 C-853.82129195 315.97202073 -861.92948314 323.45886497 -869.97216797 331.08544922 C-871.96267893 332.9647638 -873.96506504 334.83036177 -875.97265625 336.69140625 C-883.12012299 343.32412868 -890.15484675 350.05475688 -897.0625 356.9375 C-897.7527124 357.62312012 -898.4429248 358.30874023 -899.15405273 359.01513672 C-903.09135238 362.96441549 -906.82746477 367.03049153 -910.47045898 371.25219727 C-912.22932061 373.26204409 -914.07894631 375.14518954 -916 377 C-919.21434731 380.1711603 -922.21750963 383.45582753 -925.16015625 386.87890625 C-927.19508819 389.22491058 -929.28290967 391.5173645 -931.375 393.8125 C-935.25033743 398.10608632 -938.9222131 402.53088002 -942.55859375 407.02734375 C-945.27720803 410.3375285 -948.07121916 413.57461422 -950.875 416.8125 C-956.81431724 423.70352902 -962.45350857 430.79075247 -968 438 C-968.91338135 439.18239258 -968.91338135 439.18239258 -969.84521484 440.38867188 C-971.88071694 443.02633706 -973.90999038 445.66868723 -975.9375 448.3125 C-976.5572168 449.11695557 -977.17693359 449.92141113 -977.81542969 450.75024414 C-988.33594959 464.53104341 -998.07501706 478.88985581 -1007.6875 493.3125 C-1008.20302429 494.08558502 -1008.71854858 494.85867004 -1009.24969482 495.65518188 C-1029.19516936 525.6178652 -1047.00218499 556.69635771 -1063.34912109 588.765625 C-1064.89626239 591.79675897 -1066.45696144 594.82055068 -1068.01953125 597.84375 C-1082.64612312 626.36267688 -1094.82212255 655.98413845 -1106 686 C-1106.26319031 686.70600342 -1106.52638062 687.41200684 -1106.79754639 688.1394043 C-1135.47926832 765.28196011 -1153.0094971 846.58836229 -1115 1302 C-1114.76085876 1302.71871277 -1114.52171753 1303.43742554 -1114.27532959 1304.17791748 C-1103.60357143 1336.19319197 -1090.97349456 1367.54677852 -1076.43115234 1398.00244141 C-1074.96000884 1401.08376176 -1073.50477798 1404.17227493 -1072.05078125 1407.26171875 C-1061.52767816 1429.51947773 -1050.16123361 1451.17703759 -1037.57666016 1472.33886719 C-1036.16557511 1474.72053751 -1034.77114839 1477.11058319 -1033.38671875 1479.5078125 C-1019.29742947 1503.86484233 -1003.55256991 1527.25523141 -987 1550 C-986.48115234 1550.71720215 -985.96230469 1551.4344043 -985.42773438 1552.17333984 C-977.71709668 1562.82104571 -969.75448173 1573.18541134 -961.38085938 1583.31933594 C-959.51780455 1585.5868871 -957.69562664 1587.88581347 -955.875 1590.1875 C-952.37860866 1594.57455102 -948.76506956 1598.85480293 -945.12524414 1603.12280273 C-942.29087525 1606.45154395 -939.5338462 1609.82754362 -936.8125 1613.25 C-932.1611473 1618.97409711 -927.11140944 1624.30011095 -922.02270508 1629.63574219 C-918.666143 1633.1557637 -915.37085581 1636.70560285 -912.16015625 1640.359375 C-905.38902112 1647.91682145 -898.13435814 1655.01428589 -890.95239258 1662.17797852 C-888.43650714 1664.68849074 -885.92602814 1667.20432064 -883.41601562 1669.72070312 C-881.79719563 1671.33886249 -880.17806555 1672.95671172 -878.55859375 1674.57421875 C-877.44888466 1675.68696419 -877.44888466 1675.68696419 -876.3167572 1676.82218933 C-872.25760489 1680.86334861 -868.11149195 1684.74117839 -863.76535034 1688.47276306 C-861.00142593 1690.86388473 -858.35263719 1693.37511982 -855.6875 1695.875 C-850.91589105 1700.31465293 -846.0183201 1704.51659141 -840.93359375 1708.59765625 C-837.45096151 1711.44961208 -834.07230285 1714.40833002 -830.6875 1717.375 C-824.18393952 1723.05365428 -817.50585649 1728.45283239 -810.66455078 1733.71777344 C-809.07264252 1734.94404246 -807.48732658 1736.1788552 -805.90234375 1737.4140625 C-759.45869058 1773.46514094 -709.64289785 1804.64045729 -657.27539062 1831.32861328 C-654.2045515 1832.89562019 -651.14103314 1834.47615987 -648.078125 1836.05859375 C-595.20007263 1863.17186774 -538.36100887 1883.73885962 -481 1899 C-479.94504333 1899.28299957 -479.94504333 1899.28299957 -478.86877441 1899.57171631 C-439.79925344 1910.0501703 -400.09990261 1917.73400614 -360 1923 C-359.25288757 1923.09841187 -358.50577515 1923.19682373 -357.73602295 1923.29821777 C-346.51177347 1924.76456646 -335.27141325 1925.9614455 -324 1927 C-322.8044046 1927.1127829 -322.8044046 1927.1127829 -321.58465576 1927.22784424 C-295.47115024 1929.67352784 -269.39985164 1930.28731527 -243.18923569 1930.31007385 C-240.86334119 1930.3124481 -238.53746701 1930.31775361 -236.21157837 1930.32336426 C-207.53619332 1930.37402238 -178.90674756 1929.2321725 -150.375 1926.25 C-149.56912445 1926.16763092 -148.7632489 1926.08526184 -147.93295288 1926.00039673 C-60.92905462 1917.04190941 25.34709744 1895.80941403 166.64794922 1834.64453125 C168.77811851 1833.59946058 170.90978875 1832.55743952 173.04345703 1831.51953125 C187.35324624 1824.55840743 201.24653226 1817.00217591 215 1809 C216.08506836 1808.36900391 217.17013672 1807.73800781 218.28808594 1807.08789062 C240.39958955 1794.18898296 261.99173055 1780.63150064 283 1766 C283.70398926 1765.51354004 284.40797852 1765.02708008 285.13330078 1764.52587891 C297.37973765 1756.06298715 309.22327185 1747.10227428 321 1738 C321.68787598 1737.46955078 322.37575195 1736.93910156 323.08447266 1736.39257812 C330.51940446 1730.6490504 337.76857851 1724.724969 344.91015625 1718.62109375 C347.77577694 1716.17696666 350.69405522 1713.80304266 353.625 1711.4375 C358.38807218 1707.56187067 362.93364249 1703.48765711 367.453125 1699.33203125 C369.58941749 1697.37594748 371.74780657 1695.45812303 373.9375 1693.5625 C381.86844708 1686.65542519 389.54273259 1679.53205761 396.92578125 1672.04296875 C398.86941021 1670.12862233 400.86592426 1668.33636426 402.9375 1666.5625 C407.86749691 1662.31971478 412.66816511 1657.85556083 417 1653 C417 1652.34 417 1651.68 417 1651 C417.66 1651 418.32 1651 419 1651 C420.50049936 1649.51638306 420.50049936 1649.51638306 422.0625 1647.5625 C424.75174994 1644.39242783 427.53513377 1641.41418475 430.5 1638.5 C433.87100065 1635.16879193 437.0451403 1631.74888372 440.12890625 1628.15234375 C442.33079829 1625.61947838 444.60195826 1623.15667478 446.875 1620.6875 C450.94540056 1616.22477168 454.80176909 1611.63742 458.59375 1606.9375 C461.29780389 1603.63644719 464.0815942 1600.41278397 466.875 1597.1875 C472.81438851 1590.29653808 478.45351296 1583.20924182 484 1576 C484.6089209 1575.21173828 485.2178418 1574.42347656 485.84521484 1573.61132812 C487.88071694 1570.97366294 489.90999038 1568.33131277 491.9375 1565.6875 C492.5572168 1564.88304443 493.17693359 1564.07858887 493.81542969 1563.24975586 C504.43967085 1549.33309241 514.24643018 1534.82477081 523.9375 1520.25 C524.72145142 1519.07195801 524.72145142 1519.07195801 525.52124023 1517.87011719 C544.88962312 1488.7393136 562.39751001 1458.76128302 578.19287109 1427.55859375 C579.94212406 1424.11396915 581.71307206 1420.6813037 583.48828125 1417.25 C602.80901648 1379.62799965 618.44841351 1340.07649788 631.875 1300 C632.13261108 1299.23460907 632.39022217 1298.46921814 632.65563965 1297.68063354 C633.37990566 1295.51877634 634.09442138 1293.35399229 634.8046875 1291.1875 C635.20671387 1289.96417969 635.60874023 1288.74085937 636.02294922 1287.48046875 C637.01518407 1283.94591102 637.56747946 1280.63713103 638 1277 C588.79277247 1240.77982589 529.62083614 1215.76445824 469 1207 C469.38929687 1205.91589844 469.77859375 1204.83179688 470.1796875 1203.71484375 C480.89067835 1173.64959222 490.06441021 1143.51511161 496.5625 1112.25 C496.73120605 1111.45247314 496.89991211 1110.65494629 497.07373047 1109.83325195 C497.78784774 1106.19336134 498.06201181 1103.5449222 497 1100 C481.98356403 1097.30679142 466.99538569 1094.81388925 451.8125 1093.25 C450.70688721 1093.13487061 449.60127441 1093.01974121 448.4621582 1092.90112305 C430.0754633 1091.11102831 411.71256768 1090.79480393 393.25 1090.8125 C391.49638153 1090.81340637 391.49638153 1090.81340637 389.70733643 1090.81433105 C371.38748032 1090.83997116 353.2455131 1091.228404 335 1093 C334.3304126 1093.06316406 333.6608252 1093.12632812 332.97094727 1093.19140625 C292.32569977 1097.02967982 252.67846679 1104.68076144 214 1118 C213.02675781 1118.33193359 212.05351563 1118.66386719 211.05078125 1119.00585938 C165.11922014 1134.85807372 123.70755004 1160.69412379 86 1191 C85.071875 1191.74507812 84.14375 1192.49015625 83.1875 1193.2578125 C72.95523309 1201.55665688 62.9731252 1210.15400468 53.2109375 1219 C48.81017768 1222.98089934 44.3321373 1226.86972007 39.8125 1230.71484375 C34.05731 1235.61577906 28.35169224 1240.54260158 22.8125 1245.6875 C18.37083115 1249.80262891 13.80568994 1253.71052356 9.0859375 1257.50390625 C6.75812556 1259.38678198 4.4554198 1261.28850631 2.1640625 1263.21484375 C-40.63426022 1299.10063615 -89.19329786 1324.45407478 -145 1331.75 C-146.29393677 1331.92341919 -146.29393677 1331.92341919 -147.61401367 1332.1003418 C-166.05654103 1334.29782741 -184.80993386 1334.16128469 -203.35546875 1334.16796875 C-205.51996378 1334.17119883 -207.68445862 1334.17456406 -209.84895325 1334.17805481 C-214.34893295 1334.18398027 -218.84889364 1334.18590153 -223.34887695 1334.18530273 C-227.8990476 1334.18522148 -232.44911754 1334.19217365 -236.99926758 1334.20581055 C-306.49714096 1334.4107888 -374.26987931 1327.92628518 -433 1287 C-433.57443848 1286.59974609 -434.14887695 1286.19949219 -434.74072266 1285.78710938 C-442.88963241 1280.02916772 -450.489442 1273.55687336 -458 1267 C-458.5048291 1266.55978516 -459.0096582 1266.11957031 -459.52978516 1265.66601562 C-464.78727698 1261.05472486 -469.78714312 1256.38668769 -474.28125 1251.0234375 C-475.47272942 1249.62074128 -476.70550961 1248.25249577 -477.96875 1246.9140625 C-528.63834007 1193.12351942 -542.39198819 1118.84887334 -542.26865101 1047.67246771 C-542.26346984 1043.72533781 -542.26831495 1039.77821562 -542.27142334 1035.83108521 C-542.27502779 1029.21370743 -542.27035695 1022.59637478 -542.26074219 1015.97900391 C-542.24985547 1008.40014943 -542.25339922 1000.82140262 -542.264395 993.24255073 C-542.27355885 986.65486019 -542.2747096 980.06720148 -542.26951766 973.47950661 C-542.26644843 969.58012964 -542.26584534 965.68080275 -542.27259064 961.78142929 C-542.30499776 940.11485144 -542.05325552 918.39913775 -538.25 897 C-538.08008545 896.02474365 -537.9101709 895.0494873 -537.73510742 894.04467773 C-530.10861237 851.88795188 -513.75298359 811.68712088 -487 778 C-486.319375 777.12730469 -485.63875 776.25460937 -484.9375 775.35546875 C-466.43051978 752.11968292 -444.29681211 733.44544705 -419 718 C-418.36304199 717.6086084 -417.72608398 717.2172168 -417.06982422 716.81396484 C-368.89908171 687.54740189 -312.87917354 679.62289612 -257.5234375 679.734375 C-255.08842938 679.73302089 -252.65342152 679.73107425 -250.21841431 679.72857666 C-245.16478856 679.72566147 -240.11123447 679.7298056 -235.05761719 679.73925781 C-228.65650935 679.75066236 -222.25556916 679.74406307 -215.85446739 679.73211288 C-210.84201852 679.72480616 -205.82960791 679.72722191 -200.81715775 679.73236847 C-198.45981449 679.73368011 -196.10246749 679.73214718 -193.74512863 679.72740936 C-105.95668737 679.58955234 -38.4657829 712.64218751 25.73828125 770.953125 C28.44502428 773.40275082 31.19477065 775.79966025 33.94921875 778.1953125 C36.26088797 780.22958141 38.5353143 782.3022231 40.8125 784.375 C44.25378205 787.48528851 47.76321298 790.46478312 51.375 793.375 C55.38829777 796.61955341 59.22383548 799.98778385 63 803.5 C68.47774579 808.58328498 74.16567707 813.33254166 80 818 C81.11905814 818.91076019 82.23751888 819.82225476 83.35546875 820.734375 C104.11964225 837.6054428 125.89193143 852.54315654 149 866 C149.7950293 866.4655127 150.59005859 866.93102539 151.40917969 867.41064453 C173.42625441 880.21074064 196.865391 889.96568964 221 898 C221.9369873 898.31275879 222.87397461 898.62551758 223.83935547 898.94775391 C306.3085624 926.09006793 399.34303338 929.73926129 498 913 C492.90354734 876.90232756 482.88304942 839.276252 468 806 C468.57540527 805.9582666 469.15081055 805.9165332 469.74365234 805.87353516 C476.84846508 805.27033613 483.67556765 803.94435676 490.625 802.375 C491.80070557 802.11066162 492.97641113 801.84632324 494.18774414 801.57397461 C541.47729897 790.70642535 602.77185021 771.22814979 638 736 C636.7745091 726.13771613 633.09354333 716.73232176 629.875 707.375 C629.41747849 706.03858459 629.41747849 706.03858459 628.95071411 704.6751709 C609.45033484 647.89708214 584.3682154 592.40759265 553.65722656 540.81005859 C552.14676568 538.24886166 550.67151095 535.67189784 549.2109375 533.08203125 C541.72413458 519.92114397 533.39075246 507.34589722 525 494.75 C524.40757507 493.85911682 523.81515015 492.96823364 523.20477295 492.050354 C507.68714062 468.75003718 491.13793421 446.35760389 473.39257812 424.70849609 C471.55087934 422.44899257 469.74385924 420.16280622 467.9375 417.875 C460.46471643 408.51435532 452.56313693 399.50309105 444.44921875 390.6953125 C442.46683147 388.51373798 440.51848223 386.3118482 438.58203125 384.08984375 C427.61071336 371.52603356 415.84141121 359.73714873 404.0625 347.9375 C403.3811499 347.25356171 402.6997998 346.56962341 401.99780273 345.86495972 C392.59137922 336.37694506 392.59137922 336.37694506 382.67602539 327.4309082 C379.75062274 324.93334302 376.98481753 322.26394831 374.1875 319.625 C369.14089056 314.89803624 363.96665852 310.42490857 358.56640625 306.1015625 C356.02440637 304.01998573 353.60470665 301.8496162 351.1875 299.625 C345.62650879 294.56476156 339.73071235 289.98701399 333.78808594 285.38964844 C332.08233738 284.06399022 330.38684971 282.72653812 328.6953125 281.3828125 C280.70838966 243.28475035 228.83645221 210.47738172 174.26660156 182.66699219 C171.22204621 181.11331327 168.18488911 179.54599933 165.1484375 177.9765625 C89.31472394 139.08581385 5.81730672 112.38763494 -438 104 Z " fill="#006BFF" transform="translate(1309,43)"/>
<path d="M0 0 C2.43303444 -0.00322641 4.86606871 -0.00659143 7.29910278 -0.01008606 C12.37356006 -0.01603104 17.44800043 -0.01793085 22.52246094 -0.01733398 C27.66149426 -0.01725288 32.80043813 -0.02417703 37.93945312 -0.0378418 C144.68680657 -0.31728995 240.15783667 21.39936645 330.359375 96.578125 C333.22566199 99.03335533 336.13506534 101.42092728 339.0703125 103.79296875 C343.52686117 107.42039209 347.81539509 111.19733962 352.06640625 115.0625 C356.48230784 119.07627901 360.98632744 122.98551918 365.53515625 126.84765625 C371.48797029 131.90892944 377.36264117 137.01804786 383.0703125 142.35546875 C387.7671183 146.74159638 392.58968097 150.89135752 397.60546875 154.9140625 C400.03095896 156.88242797 402.40115482 158.90140802 404.76123047 160.94726562 C481.74841098 227.39783546 580.87379461 249.40674941 680.83714294 242.73599243 C689.70676257 242.08127834 698.54510175 241.16073203 707.3828125 240.16796875 C709.41263298 239.95192427 711.44256993 239.73696948 713.47265625 239.5234375 C717.44636763 239.09934956 721.41552595 238.6483382 725.3828125 238.16796875 C755.3828125 315.38125921 755.3828125 315.38125921 755.3828125 345.16796875 C746.65209209 347.57238622 737.9857011 349.09304867 729.0078125 350.23046875 C727.68107029 350.40209439 726.35432876 350.57372532 725.02758789 350.74536133 C713.83489496 352.17588343 702.63788785 353.36372174 691.3828125 354.16796875 C690.2071875 354.25473877 690.2071875 354.25473877 689.0078125 354.34326172 C603.33725444 360.35804882 511.28185778 349.26434222 433.3828125 312.16796875 C432.69026367 311.83829102 431.99771484 311.50861328 431.28417969 311.16894531 C426.60468157 308.9215998 421.98107766 306.5768375 417.3828125 304.16796875 C416.62033203 303.76884277 415.85785156 303.3697168 415.07226562 302.95849609 C390.66967981 290.08372328 367.82864619 274.50273722 346.3828125 257.16796875 C345.44050781 256.40871094 344.49820313 255.64945313 343.52734375 254.8671875 C336.97293836 249.54232425 330.52076035 244.09763115 324.09179688 238.62255859 C322.94042392 237.64257573 321.78805896 236.6637573 320.63476562 235.68603516 C313.30049257 229.4681114 306.10149624 223.1381886 299.0390625 216.61328125 C292.83941775 210.90596123 286.40943579 205.4611892 280.00170898 199.99023438 C276.89556277 197.33542254 273.80441655 194.66634599 270.7421875 191.9609375 C262.25268697 184.47720523 253.49826848 177.46574353 244.42773438 170.69824219 C242.51270923 169.26517418 240.61070907 167.81647243 238.7109375 166.36328125 C185.70573953 126.19335781 126.0357265 112.02007796 60.54296875 112 C58.0473987 111.99677719 55.55182883 111.99341239 53.05625916 111.98991394 C47.84275882 111.98395604 42.62927498 111.98207051 37.41577148 111.98266602 C30.80697524 111.98276726 24.19828733 111.9691385 17.58951664 111.95189381 C12.43722571 111.94065293 7.28495993 111.9387505 2.132658 111.93927574 C-0.30004816 111.93811283 -2.73275535 111.93378888 -5.16544914 111.92594337 C-26.22107902 111.8644074 -47.29273207 112.58099296 -68.0546875 116.35546875 C-69.25585205 116.57050049 -70.4570166 116.78553223 -71.69458008 117.00708008 C-99.21842636 122.12884603 -125.98322756 130.74553492 -150.6171875 144.16796875 C-151.26268555 144.51150391 -151.90818359 144.85503906 -152.57324219 145.20898438 C-166.85192834 152.81779229 -180.2374644 161.73498073 -192.6171875 172.16796875 C-193.42518799 172.84279297 -193.42518799 172.84279297 -194.24951172 173.53125 C-245.85730906 216.69672353 -276.7148772 280.16881286 -283.2150116 346.86579895 C-284.69899555 364.00124713 -284.93074869 381.08153928 -284.91877007 398.26498008 C-284.91767732 401.38742812 -284.92264096 404.5098569 -284.9273755 407.63230067 C-284.9383579 415.02303047 -284.93897292 422.41370941 -284.93286133 429.80444336 C-284.92683416 437.32752734 -284.93912699 444.8504237 -284.9604314 452.37347573 C-284.97827638 458.92560977 -284.98401337 465.47768535 -284.98079365 472.02984267 C-284.97901626 475.90209036 -284.98124734 479.77420432 -284.99550819 483.64642906 C-285.23857564 555.89797099 -268.27731971 627.52831248 -217.875 681.72265625 C-215.93220313 683.82679266 -214.08102678 685.97379821 -212.2421875 688.16796875 C-195.01132252 707.88907529 -171.63138583 723.11743482 -148.6171875 735.16796875 C-147.88854492 735.55662109 -147.15990234 735.94527344 -146.40917969 736.34570312 C-117.84926553 751.40787441 -85.76860576 759.93975713 -53.8671875 763.98046875 C-52.98353516 764.09261719 -52.09988281 764.20476563 -51.18945312 764.3203125 C-32.29471119 766.41823402 -13.11633125 766.32908641 5.87109375 766.3359375 C8.03655517 766.33916802 10.2020164 766.34253326 12.36747742 766.34602356 C16.86567693 766.35194476 21.36385743 766.35387067 25.86206055 766.35327148 C30.41223112 766.35319015 34.96230117 766.36015609 39.51245117 766.3737793 C88.28411377 766.51749508 136.03351396 765.44618122 181.3828125 745.16796875 C182.29095703 744.76594238 183.19910156 744.36391602 184.13476562 743.94970703 C211.13712013 731.87432054 234.93170533 715.4562796 257.62548828 696.62109375 C260.15214617 694.53180954 262.70749157 692.47825607 265.2578125 690.41796875 C269.6447047 686.82689957 273.8722587 683.0868956 278.06640625 679.2734375 C282.48230784 675.25965849 286.98632744 671.35041832 291.53515625 667.48828125 C297.48796855 662.42700953 303.36266972 657.3179184 309.0703125 651.98046875 C313.74130046 647.61803467 318.53972404 643.49770495 323.52734375 639.49609375 C326.15448497 637.35412909 328.71615758 635.15729144 331.27050781 632.93017578 C338.96909117 626.22907611 346.95385577 619.97597686 355.12353516 613.86083984 C357.42827699 612.13390231 359.72371986 610.39503541 362.01953125 608.65625 C440.3691068 549.70141874 536.44497082 524.52651835 652.5078125 522.98046875 C653.62588287 522.981073 654.74395325 522.98167725 655.89590454 522.9822998 C672.80527591 523.00703279 689.55954808 523.30900412 706.3828125 525.16796875 C707.02244934 525.23820251 707.66208618 525.30843628 708.32110596 525.38079834 C723.75151646 527.08577794 739.19812191 528.8712925 754.3828125 532.16796875 C755.87581465 536.10287273 754.91737008 539.59779506 754.046875 543.5625 C753.81538002 544.65949722 753.81538002 544.65949722 753.57920837 545.77865601 C753.0668421 548.18189218 752.53890208 550.5813047 752.0078125 552.98046875 C751.82741425 553.80519684 751.64701599 554.62992493 751.46115112 555.47964478 C745.11811438 584.35787908 736.59750072 612.79148898 725.3828125 640.16796875 C724.40634766 640.05203369 723.42988281 639.93609863 722.42382812 639.81665039 C718.71909866 639.3779884 715.01370346 638.94517418 711.30810547 638.51391602 C709.719709 638.32827797 708.13148471 638.14115938 706.54345703 637.95239258 C687.9053684 635.73919333 669.45750136 634.92843734 650.6953125 634.91796875 C649.60043518 634.91729401 648.50555786 634.91661926 647.37750244 634.91592407 C607.77234137 634.95439803 568.71135815 638.83059006 530.3828125 649.16796875 C529.52365234 649.39564941 528.66449219 649.62333008 527.77929688 649.85791016 C486.75326834 660.88185664 449.45552877 681.80990161 416.3828125 708.16796875 C415.76438477 708.66022949 415.14595703 709.15249023 414.50878906 709.65966797 C402.74183796 719.05741463 391.27920881 728.79127431 380.1328125 738.91796875 C376.88271237 741.86871755 373.55663917 744.67094502 370.1328125 747.41796875 C365.70346461 750.99648146 361.52598935 754.76814453 357.3828125 758.66796875 C352.4755278 763.2829638 347.4657148 767.66339388 342.203125 771.875 C339.58627124 774.00255285 337.03834318 776.18771883 334.49707031 778.40380859 C326.08736348 785.72511709 317.32478109 792.51163326 308.3828125 799.16796875 C307.67141113 799.70035156 306.96000977 800.23273437 306.22705078 800.78125 C273.57129481 825.13419299 237.89249094 844.79156452 199.3828125 858.16796875 C198.55861816 858.45510742 197.73442383 858.74224609 196.88525391 859.03808594 C160.86392466 871.40573222 123.14280393 876.72131676 85.203125 877.70703125 C83.97804419 877.73937174 83.97804419 877.73937174 82.72821426 877.77236557 C64.63477324 878.23963706 46.54590826 878.32241929 28.44726562 878.29833984 C24.09611239 878.29259805 19.74501972 878.29607242 15.39386845 878.30177402 C-37.09148109 878.36030334 -37.09148109 878.36030334 -58.8046875 875.98046875 C-59.97717041 875.85373779 -61.14965332 875.72700684 -62.35766602 875.59643555 C-134.11285307 867.31535754 -204.83687796 840.71192833 -260.6171875 794.16796875 C-261.6175 793.34039063 -262.6178125 792.5128125 -263.6484375 791.66015625 C-278.21417182 779.52971626 -292.3581443 766.65592889 -304.6171875 752.16796875 C-305.79474609 750.82412109 -305.79474609 750.82412109 -306.99609375 749.453125 C-323.6037471 730.38290426 -337.49609287 709.30358859 -349.55371094 687.10986328 C-350.59980998 685.19969989 -351.67257331 683.30669286 -352.75 681.4140625 C-385.86124277 622.28097985 -396.17225529 553.88420106 -396.02016401 487.05308533 C-396.01237382 482.53050282 -396.01966498 478.00793512 -396.02432251 473.48535156 C-396.02972543 465.90165863 -396.02273458 458.31805436 -396.00830078 450.734375 C-395.99198502 442.06375136 -395.99727746 433.39333963 -396.01378 424.7227211 C-396.02755332 417.17342488 -396.02923855 409.62419109 -396.02146399 402.07488632 C-396.01687303 397.61194152 -396.0159169 393.14909504 -396.02607346 388.68615723 C-396.18206688 309.16197504 -378.53353237 230.86058775 -333.6171875 164.16796875 C-333.12895508 163.44174316 -332.64072266 162.71551758 -332.13769531 161.96728516 C-322.96659161 148.43431506 -312.89489008 135.59883633 -301.8125 123.57421875 C-299.95370811 121.53682408 -298.14627853 119.46958982 -296.34375 117.3828125 C-292.66952913 113.17544248 -288.81862793 109.17709797 -284.8671875 105.23046875 C-284.1661792 104.53026611 -283.4651709 103.83006348 -282.74291992 103.10864258 C-278.11831637 98.53811556 -273.40784244 94.29840088 -268.2890625 90.28515625 C-265.87565349 88.3727766 -263.55864101 86.37983759 -261.24658203 84.34716797 C-244.14046399 69.42662437 -224.41852515 57.22188219 -204.38671875 46.63671875 C-202.27989815 45.51942038 -200.20351057 44.37358603 -198.12890625 43.19921875 C-137.97628693 9.62864426 -67.8280873 0.02152242 0 0 Z " fill="#00E9F2" transform="translate(1051.6171875,610.83203125)"/>
</svg>
