<?xml version="1.0" encoding="UTF-8"?>
<svg version="1.1" xmlns="http://www.w3.org/2000/svg" width="1280" height="1461">
<path d="M0 0 C1.88332031 0.49113281 1.88332031 0.49113281 3.8046875 0.9921875 C20.38468581 5.87704722 35.93430769 14.7668031 49 26 C49.88816406 26.73863281 50.77632812 27.47726563 51.69140625 28.23828125 C57.90568014 33.57971056 63.01644827 39.51232175 68 46 C68.66773438 46.84046875 69.33546875 47.6809375 70.0234375 48.546875 C91.08614688 76.01997419 98.77931097 112.0528561 94.28198242 146.11157227 C88.91312855 179.43956029 70.49916438 210.93257839 43.36035156 231.22607422 C24.62595247 244.75416196 1.53217092 256.21421381 -22 256 C-21.92784775 257.26006678 -21.8556955 258.52013355 -21.78135681 259.81838417 C-20.06629316 289.77337307 -18.35535372 319.72859444 -16.64944822 349.68410615 C-16.43918056 353.37631988 -16.22887832 357.06853164 -16.01855469 360.76074219 C-15.97668608 361.49575169 -15.93481747 362.23076119 -15.89168012 362.98804371 C-15.21490829 374.86742176 -14.53533915 386.74663821 -13.85472429 398.62579663 C-13.15568811 410.82757082 -12.45968574 423.02951537 -11.76646137 435.23162115 C-11.33909273 442.75247764 -10.90939762 450.27319362 -10.47666383 457.79374336 C-10.14431703 463.57408665 -9.81620462 469.35466448 -9.48962021 475.13533592 C-9.35555647 477.49676886 -9.220149 479.85812599 -9.08325577 482.21939659 C-8.41095855 493.82867868 -7.81238129 505.36772549 -8 517 C-7.35565838 516.99962028 -6.71131677 516.99924056 -6.04744965 516.99884933 C32.24092824 516.97641424 70.52930515 516.95928475 108.81768828 516.94893467 C113.42704285 516.94768414 118.03639741 516.9463898 122.64575195 516.94506836 C124.02206526 516.94467489 124.02206526 516.94467489 125.42618287 516.94427348 C140.23380772 516.93993604 155.04142864 516.93205918 169.84905117 516.9228472 C185.0715687 516.91345692 200.29408418 516.90793307 215.51660448 516.90591151 C224.89060102 516.90454739 234.26458644 516.90025759 243.63857955 516.89208353 C250.08869792 516.8867496 256.53881065 516.88521062 262.98893105 516.88649862 C266.69624857 516.88713174 270.40354684 516.88624343 274.11086082 516.88079453 C278.16151993 516.87488561 282.21213958 516.87704828 286.26280212 516.87974548 C287.39228411 516.87683264 288.5217661 516.8739198 289.68547481 516.87091869 C301.82301685 516.89237812 313.83907216 517.51356289 326 518 C326 558.59 326 599.18 326 641 C220.07 641 114.14 641 5 641 C6.98 667.73 8.96 694.46 11 722 C157.52 721.01 304.04 720.02 455 719 C469.72682501 751.85214811 469.72682501 751.85214811 475.64364624 765.79171753 C482.05343799 780.88681926 488.57407705 795.93060852 495.1875 810.9375 C500.58207833 823.18272051 505.93456811 835.44331787 511.1875 847.75 C517.60973384 862.79563923 524.10818708 877.80759345 530.625 892.8125 C531.12589142 893.96585846 531.62678284 895.11921692 532.14285278 896.30752563 C534.10597095 900.82755519 536.06927713 905.34750298 538.03294373 909.86729431 C541.73507366 918.38862964 545.43216586 926.91213268 549.125 935.4375 C549.62273926 936.58645752 550.12047852 937.73541504 550.63330078 938.91918945 C551.60095793 941.15297466 552.5685697 943.38677953 553.53613281 945.62060547 C555.91598994 951.11459853 558.29674045 956.60820443 560.6774292 962.10183716 C562.03499002 965.23454198 563.39249227 968.36727218 564.75 971.5 C565.29166638 972.75000012 565.83333305 974.00000012 566.375 975.25 C582.62500005 1012.75000011 582.62500005 1012.75000011 583.43754578 1014.62510681 C583.97905871 1015.87475127 584.52057279 1017.12439523 585.06208801 1018.3740387 C586.41861612 1021.50447445 587.77512421 1024.63491888 589.1315918 1027.76538086 C591.80213389 1033.9284125 594.47299021 1040.09130754 597.14453125 1046.25390625 C603.78477772 1061.57249464 610.41629539 1076.89483269 617.0402832 1092.22045898 C620.23005404 1099.59972941 623.42243969 1106.97783234 626.625 1114.3515625 C636.30883279 1136.64915492 636.30883279 1136.64915492 640.8125 1147.25 C641.14443359 1148.0248877 641.47636719 1148.79977539 641.81835938 1149.59814453 C644 1154.76575592 644 1154.76575592 644 1157 C645.58905151 1156.37037354 645.58905151 1156.37037354 647.21020508 1155.72802734 C658.03271136 1151.46519909 668.93131163 1147.46911739 679.90222168 1143.6060791 C684.81093666 1141.87704626 689.71595368 1140.13758119 694.62109375 1138.3984375 C695.63652252 1138.03854736 696.65195129 1137.67865723 697.69815063 1137.30786133 C708.89847678 1133.33386918 720.07575118 1129.29662978 731.25 1125.25 C732.2278949 1124.89610199 733.20578979 1124.54220398 734.21331787 1124.17758179 C744.22230216 1120.55495107 754.22692981 1116.92077892 764.22265625 1113.26171875 C765.78546901 1112.69039477 767.34829412 1112.1191046 768.91113281 1111.54785156 C771.76996187 1110.50280756 774.62715998 1109.45346815 777.48339844 1108.40136719 C778.72250977 1107.94793945 779.96162109 1107.49451172 781.23828125 1107.02734375 C782.8476355 1106.43554321 782.8476355 1106.43554321 784.48950195 1105.83178711 C787 1105 787 1105 789 1105 C798.72154437 1127.98574058 808.42626656 1150.97834208 818.0625 1174 C818.45080994 1174.92736969 818.83911987 1175.85473938 819.23919678 1176.81021118 C820.33838033 1179.4357526 821.43692235 1182.06156123 822.53515625 1184.6875 C823.01984627 1185.84550362 823.01984627 1185.84550362 823.514328 1187.02690125 C824.09618254 1188.41926204 824.67473081 1189.81301187 825.24905396 1191.20849609 C825.89237687 1192.74324752 826.58132261 1194.2587371 827.27905273 1195.76953125 C828.12666869 1198.39188798 827.96996298 1199.45067011 827 1202 C824.41649752 1203.34858907 822.00511893 1204.3959834 819.2890625 1205.40625 C818.47585541 1205.72310257 817.66264832 1206.03995514 816.82479858 1206.3664093 C814.09691154 1207.42547603 811.36110294 1208.46236326 808.625 1209.5 C806.68427997 1210.24930203 804.7441876 1211.00023149 802.8046875 1211.75268555 C798.67099816 1213.35444926 794.53434419 1214.94820613 790.39550781 1216.53662109 C784.11455575 1218.9507985 777.84818774 1221.40105409 771.5859375 1223.86328125 C770.55598663 1224.26823822 769.52603577 1224.67319519 768.46487427 1225.09042358 C766.36861032 1225.9148305 764.27238858 1226.73934474 762.1762085 1227.56396484 C756.79634984 1229.6787324 751.41373003 1231.78644655 746.03125 1233.89453125 C734.24621012 1238.51121356 722.46261191 1243.13156513 710.67944336 1247.75302124 C705.36969171 1249.83550763 700.05984078 1251.91774088 694.75 1254 C692.62499953 1254.83333212 690.49999953 1255.66666546 688.375 1256.5 C675.62499996 1261.50000001 675.62499996 1261.50000001 672.43812561 1262.7497406 C670.3110275 1263.5839061 668.18394215 1264.41810415 666.05686951 1265.25233459 C660.77657426 1267.32320145 655.49606552 1269.39352033 650.21508789 1271.46264648 C640.26829722 1275.36054957 630.32384815 1279.26416071 620.38644409 1283.1859436 C615.69951407 1285.03526589 611.01142415 1286.88163739 606.32324219 1288.7277832 C604.0917033 1289.60749355 601.86073174 1290.48864459 599.63037109 1291.37133789 C596.53496178 1292.59628061 593.43761978 1293.81621355 590.33984375 1295.03515625 C588.98698524 1295.57282372 588.98698524 1295.57282372 587.60679626 1296.12135315 C581.81660994 1298.39248433 575.98384852 1300.30436684 570 1302 C563.57251514 1287.73753904 557.29159444 1273.43149181 551.27719116 1258.98925781 C545.9770551 1246.26909146 540.56207296 1233.59967663 535.125 1220.9375 C527.59944153 1203.40665854 520.09737907 1185.86607867 512.625 1168.3125 C512.14765411 1167.19130768 511.67030823 1166.07011536 511.17849731 1164.91494751 C506.82844678 1154.69728061 502.4801931 1144.47884931 498.13232422 1134.26025391 C495.27636331 1127.54822706 492.41976152 1120.83647329 489.5625 1114.125 C489.0899176 1113.01492584 488.61733521 1111.90485168 488.13043213 1110.76113892 C480.77919089 1093.49643377 473.39704992 1076.24512249 466 1059 C458.12254295 1040.63487968 450.26503868 1022.26145541 442.4375 1003.875 C441.96456512 1002.76413025 441.49163025 1001.6532605 441.00436401 1000.50872803 C437.19272509 991.55488894 433.38276217 982.60033693 429.57287598 973.64575195 C426.23687468 965.80516463 422.90022314 957.9648545 419.5625 950.125 C419.0942984 949.02525848 418.6260968 947.92551697 418.14370728 946.79244995 C409.03582356 925.40310621 399.88559267 904.03201828 390.72041321 882.66717529 C389.79892941 880.51840889 388.87808489 878.3693682 387.95793152 876.22003174 C385.75696225 871.08122717 383.54449736 865.94799276 381.30761719 860.82470703 C380.88503632 859.85223526 380.46245544 858.87976349 380.02706909 857.87782288 C379.2336419 856.05297995 378.43597382 854.22997288 377.6333313 852.40916443 C377.28495209 851.60584183 376.93657288 850.80251923 376.57763672 849.97485352 C376.27139374 849.27586441 375.96515076 848.57687531 375.64962769 847.85670471 C375 846 375 846 375 843 C216.93 843 58.86 843 -104 843 C-119.89844084 621.55743117 -119.89844084 621.55743117 -125.3453598 544.16493034 C-126.35274545 529.85168939 -127.36359024 515.53869329 -128.37481689 501.22572327 C-128.55193973 498.71851784 -128.72906145 496.21131233 -128.90618205 493.70410675 C-129.17300677 489.92716859 -129.43983516 486.15023068 -129.70667206 482.37329338 C-130.67744874 468.6324269 -131.64800655 454.89154498 -132.61816406 441.15063477 C-132.70542209 439.91476341 -132.79268012 438.67889205 -132.88258234 437.40557004 C-134.33182632 416.8775446 -135.77710035 396.34924104 -137.22136459 375.82086473 C-138.7335805 354.32825333 -140.25066652 332.83598947 -141.77215314 311.34403235 C-142.69711209 298.2760495 -143.61824489 285.20780909 -144.53417006 272.13918991 C-145.15296991 263.31493834 -145.77642552 254.49102366 -146.40361533 245.66736447 C-146.76367704 240.59980108 -147.12164956 235.53211292 -147.47399139 230.46400642 C-147.79615294 225.83061591 -148.124255 221.19768543 -148.45705453 216.56504721 C-148.57601217 214.8945553 -148.69280801 213.22390768 -148.80718216 211.55309569 C-149.84507167 195.53138164 -149.84507167 195.53138164 -154.8125 180.375 C-167.26852314 152.27299656 -170.28853435 120.78968714 -162 91 C-161.81808105 90.3287207 -161.63616211 89.65744141 -161.44873047 88.96582031 C-152.32389485 56.26645407 -129.24752018 28.65925763 -100.06201172 11.88623047 C-89.85450954 6.21881982 -79.21858005 2.17696583 -68 -1 C-66.82179688 -1.34160156 -65.64359375 -1.68320312 -64.4296875 -2.03515625 C-44.13158538 -6.8308617 -19.96450699 -5.61649251 0 0 Z " fill="#000000" transform="translate(452,4)"/>
<path d="M0 0 C1.68155738 15.84246283 2.96123646 31.70465348 4.1640625 47.58984375 C4.36283497 50.19488154 4.56176156 52.79990758 4.76083374 55.40492249 C5.1742462 60.81954636 5.58576474 66.23431156 5.99609375 71.64916992 C6.46956479 77.8969602 6.94612093 84.14450957 7.42426455 90.39194387 C7.88734348 96.44346543 8.3482719 102.49514842 8.80823898 108.54690742 C9.00307485 111.10782479 9.19844697 113.66870142 9.39436722 116.22953606 C9.66661893 119.7921279 9.9364285 123.35489637 10.20556641 126.91772461 C10.28658096 127.97171448 10.36759552 129.02570435 10.45106506 130.1116333 C10.56032066 131.56789375 10.56032066 131.56789375 10.67178345 133.05357361 C10.7355549 133.89316085 10.79932636 134.73274809 10.86503029 135.59777737 C11.14691278 140.6147881 11.14691278 140.6147881 11 143 C9.05078125 144.921875 9.05078125 144.921875 6.3125 146.75 C5.30832031 147.43707031 4.30414063 148.12414062 3.26953125 148.83203125 C2.19058594 149.54746094 1.11164063 150.26289062 0 151 C-8.33231076 156.65873457 -16.30391318 162.48955517 -24 169 C-25.00933594 169.82371094 -26.01867187 170.64742187 -27.05859375 171.49609375 C-34.69615218 177.79393054 -41.79375371 184.58442423 -48.8125 191.5625 C-49.68374512 192.42456055 -50.55499023 193.28662109 -51.45263672 194.17480469 C-57.39173097 200.14214268 -62.74033918 206.43255314 -68 213 C-69.55950185 214.8150803 -71.12133812 216.62816326 -72.6875 218.4375 C-85.16805839 233.44894562 -95.47497896 249.99929908 -105 267 C-105.48597656 267.86737793 -105.97195312 268.73475586 -106.47265625 269.62841797 C-129.91254586 311.91761935 -143.89305648 359.86930773 -148 408 C-148.05784668 408.67627441 -148.11569336 409.35254883 -148.17529297 410.04931641 C-153.11547802 471.07599405 -141.01486629 533.16344759 -114 588 C-113.51724609 588.99918457 -113.03449219 589.99836914 -112.53710938 591.02783203 C-101.84100679 613.0613828 -88.61887818 634.09152933 -73 653 C-72.57203125 653.52126465 -72.1440625 654.0425293 -71.703125 654.57958984 C-58.41293672 670.71972152 -44.18384638 686.89297144 -27.70703125 699.84765625 C-25.2833192 701.77473466 -22.95234996 703.77913506 -20.62719727 705.82299805 C29.65123555 749.66855289 97.27234707 775.00223269 163 782 C163.82870605 782.0942627 164.65741211 782.18852539 165.51123047 782.28564453 C257.40325274 791.45679976 347.98292685 760.85708406 419.01269531 702.99707031 C435.65542646 689.28244688 451.7995274 674.07293596 465 657 C465.91082026 655.88666254 466.82512221 654.77616778 467.7421875 653.66796875 C479.50615254 639.37969724 489.832289 624.06983824 499 608 C499.44666016 607.22946289 499.89332031 606.45892578 500.35351562 605.66503906 C523.44134854 565.65966688 536.09412978 522.4646788 543 477 C545.22084706 479.05472226 546.65739468 480.94280547 548.00195312 483.64746094 C548.36703476 484.37466339 548.73211639 485.10186584 549.10826111 485.85110474 C549.49534744 486.63758392 549.88243378 487.42406311 550.28125 488.234375 C550.69125748 489.05590057 551.10126495 489.87742615 551.5236969 490.72384644 C552.85521768 493.39625351 554.17780615 496.07296774 555.5 498.75 C556.4142998 500.59049717 557.32893289 502.43082882 558.24389648 504.27099609 C563.35869458 514.57461301 568.40968581 524.90568619 573.33007812 535.30371094 C575.80465755 540.52847461 578.33625932 545.71923662 580.93334961 550.88427734 C581.45034424 551.91246582 581.96733887 552.9406543 582.5 554 C582.90360245 554.80108688 583.3072049 555.60217377 583.72303772 556.42753601 C586.89383458 562.74065692 589.9743761 569.09074874 593.00390625 575.47265625 C599.37719006 588.84568568 605.90362506 602.14239614 612.4375 615.4375 C613.60622001 617.81831018 614.77484021 620.19916936 615.94335938 622.58007812 C617.06501321 624.86462799 618.18675468 627.14913484 619.30859375 629.43359375 C620.07894203 631.0023954 620.07894203 631.0023954 620.86485291 632.60289001 C621.34958572 633.58914871 621.83431854 634.57540741 622.33374023 635.59155273 C622.7875708 636.51726074 623.24140137 637.44296875 623.70898438 638.39672852 C624.53842812 640.0692623 625.38082597 641.73546829 626.23925781 643.39331055 C628.99307171 648.71594009 628.99307171 648.71594009 629.0703125 651.8828125 C627.48696232 656.49417544 625.2486136 660.62511217 622.875 664.875 C622.34874023 665.82737549 621.82248047 666.77975098 621.28027344 667.76098633 C617.12597097 675.18689261 612.74641941 682.46439556 608.25 689.6875 C607.64913574 690.65349121 607.04827148 691.61948242 606.42919922 692.61474609 C602.22079769 699.28408021 597.70605485 705.67389724 593 712 C592.4627832 712.72678955 591.92556641 713.4535791 591.37207031 714.20239258 C579.31764674 730.46957377 566.67463651 746.12725237 552.8515625 760.92578125 C550.26578763 763.69748976 547.75500926 766.52996371 545.25 769.375 C542.06189618 772.93514466 538.73797413 776.08942296 535.0859375 779.1640625 C532.6655018 781.29440853 530.43880119 783.56688364 528.1875 785.875 C523.90404581 790.21101191 519.38902513 794.06703696 514.62890625 797.8671875 C512.29680053 799.75920789 510.08296314 801.71646169 507.875 803.75 C479.02265175 829.62470377 444.4164241 849.61616358 410 867 C408.70521729 867.65548828 408.70521729 867.65548828 407.38427734 868.32421875 C357.89177015 893.17081437 303.81178492 907.45777091 249 914 C248.03916504 914.12004395 247.07833008 914.24008789 246.08837891 914.36376953 C152.79367241 925.58053141 50.40604102 904.33718347 -73 832 C-73.69319336 831.51499023 -74.38638672 831.02998047 -75.10058594 830.53027344 C-85.49949628 823.22968413 -95.4947311 815.54176327 -105.26904297 807.42675781 C-106.79202839 806.17142258 -108.33405915 804.93926912 -109.87890625 803.7109375 C-122.16631424 793.93228494 -133.28853935 782.80212312 -144.42248535 771.75274658 C-145.41517984 770.76809059 -146.40935014 769.78491973 -147.40515137 768.80340576 C-153.32695201 762.9577835 -158.84856952 756.9681808 -164.01733398 750.4440918 C-165.96141371 748.04756648 -168.00276227 745.8014874 -170.125 743.5625 C-177.39401041 735.57039431 -183.63148229 726.71125264 -190 718 C-190.54092285 717.26297852 -191.0818457 716.52595703 -191.63916016 715.76660156 C-203.59870885 699.40250348 -214.16587267 682.13571912 -223.76416016 664.29101562 C-224.59840505 662.74448182 -225.43940134 661.20157358 -226.28662109 659.66210938 C-255.06858587 607.36226372 -272.633453 548.29097729 -279 489 C-279.12920334 487.83000961 -279.12920334 487.83000961 -279.26101685 486.63638306 C-280.94288188 471.03785103 -281.34211925 455.53296591 -281.31567383 439.85083008 C-281.31252313 435.96602006 -281.33605011 432.0819819 -281.36132812 428.19726562 C-281.42247758 404.31260798 -279.38676166 380.66486838 -275.3125 357.125 C-275.18683655 356.38717285 -275.0611731 355.6493457 -274.93170166 354.88916016 C-266.63854035 306.57948264 -249.92044126 260.73233189 -228 217 C-227.5786377 216.15469727 -227.15727539 215.30939453 -226.72314453 214.43847656 C-217.36060647 195.77838986 -206.19631595 177.93216236 -194 161 C-193.1642041 159.83960205 -193.1642041 159.83960205 -192.31152344 158.65576172 C-185.47624072 149.2054514 -178.53434929 139.90667719 -171 131 C-169.7625 129.50339844 -169.7625 129.50339844 -168.5 127.9765625 C-158.23465954 115.60585131 -147.14083597 104.05193381 -135.82214355 92.64691162 C-134.83321413 91.6499457 -133.84576997 90.65150378 -132.85998535 89.65142822 C-126.99295574 83.70827846 -120.97341557 78.17617945 -114.44946289 72.96142578 C-111.92657588 70.94120509 -109.49523922 68.84353201 -107.07324219 66.70507812 C-84.74560985 47.04752464 -31.12155385 0 0 0 Z " fill="#000000" transform="translate(281,545)"/>
</svg>
